<svg width="128" height="128" viewBox="0 0 128 128" fill="none" xmlns="http://www.w3.org/2000/svg">
<rect x="-0.00128174" y="-0.000732422" width="128.003" height="128.001" rx="9.59999" fill="white"/>
<path d="M38.545 9.16642V7.99976H36.3177C35.9951 7.99976 35.72 8.11355 35.4925 8.34115C35.2649 8.56875 35.1511 8.84383 35.1511 9.16642V11.3937H38.545V9.16642Z" fill="black"/>
<path d="M41.9398 7.99976H38.5459V11.3937H41.9398V7.99976Z" fill="black"/>
<path d="M45.3311 9.16667C45.3311 8.84407 45.2173 8.56896 44.9897 8.3414C44.7622 8.11383 44.4871 8 44.1645 8H41.9372V11.3939H45.3311V9.16667Z" fill="black"/>
<path d="M62.3017 9.16618V7.99951H60.0744C59.7518 7.99951 59.4767 8.11331 59.2491 8.34091C59.0215 8.5685 58.9077 8.84358 58.9077 9.16618V10.2268C58.9077 10.5494 59.0215 10.8245 59.2491 11.0521C59.4767 11.2796 59.7518 11.3934 60.0744 11.3934H62.3017V9.16618Z" fill="black"/>
<path d="M65.6967 7.99927H62.3027V11.3932H65.6967V7.99927Z" fill="black"/>
<path d="M67.9235 7.99927H65.6962V11.3932H67.9235C68.2461 11.3932 68.5212 11.2794 68.7487 11.0518C68.9763 10.8242 69.0901 10.5491 69.0901 10.2265V9.16593C69.0901 8.84334 68.9763 8.56823 68.7487 8.34066C68.5212 8.1131 68.2461 7.99927 67.9235 7.99927Z" fill="black"/>
<path d="M89.4542 9.16642V7.99976H87.2269C86.9043 7.99976 86.6292 8.11355 86.4016 8.34115C86.1741 8.56875 86.0602 8.84383 86.0602 9.16642V10.227C86.0602 10.5496 86.174 10.8247 86.4016 11.0523C86.6292 11.2799 86.9043 11.3937 87.2269 11.3937H89.4542V9.16642Z" fill="black"/>
<path d="M92.8458 9.16642C92.8458 8.84383 92.7319 8.56872 92.5044 8.34115C92.2768 8.11359 92.0017 7.99976 91.6791 7.99976H89.4518V11.3937H92.8458V9.16642Z" fill="black"/>
<path d="M38.5453 11.3936H35.1513V14.7875H38.5453V11.3936Z" fill="black"/>
<path d="M45.3323 11.3936H41.9384V14.7875H45.3323V11.3936Z" fill="black"/>
<path d="M52.1193 12.56C52.1193 12.2374 52.0055 11.9623 51.7779 11.7347C51.5503 11.5071 51.2752 11.3933 50.9526 11.3933H49.892C49.5694 11.3933 49.2943 11.5071 49.0668 11.7347C48.8392 11.9623 48.7254 12.2374 48.7254 12.56V13.6206C48.7254 13.6383 48.7276 13.6648 48.732 13.7001H48.7254V14.7872H52.1193V13.7001H52.1127C52.1172 13.6648 52.1193 13.6383 52.1193 13.6206V12.56Z" fill="black"/>
<path d="M58.9083 13.6208C58.9083 13.9435 58.7944 14.2185 58.5669 14.4461C58.3393 14.6736 58.0643 14.7875 57.7416 14.7875H56.681C56.3584 14.7875 56.0833 14.6736 55.8558 14.4461C55.6282 14.2185 55.5143 13.9435 55.5143 13.6208V12.5602C55.5143 12.2377 55.6281 11.9625 55.8557 11.735C56.0834 11.5074 56.3584 11.3936 56.681 11.3936H57.7416C58.0643 11.3936 58.3394 11.5074 58.5669 11.735C58.7944 11.9626 58.9083 12.2377 58.9083 12.5602V13.6208Z" fill="black"/>
<path d="M65.6967 11.3933H62.3027V14.7872H65.6967V11.3933Z" fill="black"/>
<path d="M72.4847 13.6208C72.4847 13.9435 72.3708 14.2185 72.1433 14.4461C71.9157 14.6736 71.6407 14.7875 71.318 14.7875H70.2574C69.9348 14.7875 69.6597 14.6736 69.4322 14.4461C69.2046 14.2185 69.0907 13.9435 69.0907 13.6208V12.5602C69.0907 12.2377 69.2045 11.9625 69.4321 11.735C69.6598 11.5074 69.9348 11.3936 70.2574 11.3936H71.318C71.6407 11.3936 71.9158 11.5074 72.1433 11.735C72.3708 11.9626 72.4847 12.2377 72.4847 12.5602V13.6208Z" fill="black"/>
<path d="M82.6662 12.5602V11.3936H80.4389C80.1163 11.3936 79.8412 11.5074 79.6136 11.735C79.3861 11.9625 79.2722 12.2376 79.2722 12.5602V14.7875H82.6662V12.5602Z" fill="black"/>
<path d="M84.893 11.3938H82.6657V14.7877H84.893C85.2156 14.7877 85.4907 14.6739 85.7183 14.4463C85.9458 14.2188 86.0596 13.9437 86.0596 13.6211V12.5605C86.0596 12.2379 85.9458 11.9628 85.7183 11.7352C85.4907 11.5076 85.2156 11.3938 84.893 11.3938Z" fill="black"/>
<path d="M92.8461 11.3931H89.4521V14.787H92.8461V11.3931Z" fill="black"/>
<path d="M38.545 14.7881H35.1511V17.0154C35.1511 17.3379 35.2649 17.6131 35.4925 17.8406C35.7201 18.0682 35.9951 18.182 36.3177 18.182H38.545V14.7881Z" fill="black"/>
<path d="M41.9398 14.7874H38.5459V18.1813H41.9398V14.7874Z" fill="black"/>
<path d="M45.3323 14.7874H41.9384V18.1813H45.3323V14.7874Z" fill="black"/>
<path d="M52.1206 14.7874H48.7267V18.1813H52.1206V14.7874Z" fill="black"/>
<path d="M62.3017 15.9545V14.7878H60.0744C59.7518 14.7878 59.4767 14.9016 59.2491 15.1292C59.0215 15.3568 58.9077 15.6319 58.9077 15.9545V18.1818H62.3017V15.9545Z" fill="black"/>
<path d="M65.6964 14.7876H62.3024V18.1815H64.5297C64.8523 18.1815 65.1274 18.0677 65.355 17.8401C65.5825 17.6126 65.6964 17.3375 65.6964 17.0149V14.7876Z" fill="black"/>
<path d="M82.6595 15.875H82.6662V14.7878H79.2722V15.875H79.2789C79.2744 15.9103 79.2722 15.9368 79.2722 15.9545V17.0151C79.2722 17.3377 79.386 17.6128 79.6136 17.8404C79.8412 18.0679 80.1163 18.1818 80.4389 18.1818H81.4995C81.8221 18.1818 82.0972 18.0679 82.3248 17.8404C82.5523 17.6128 82.6662 17.3377 82.6662 17.0151V15.9545C82.6662 15.9368 82.664 15.9103 82.6595 15.875Z" fill="black"/>
<path d="M89.4542 15.9548V14.7881H87.2269C86.9043 14.7881 86.6292 14.9019 86.4016 15.1295C86.1741 15.3571 86.0602 15.6322 86.0602 15.9548V18.182H89.4542V15.9548Z" fill="black"/>
<path d="M92.8461 14.7876H89.4521V18.1815H92.8461V14.7876Z" fill="black"/>
<path d="M41.9386 18.1824H38.5446V20.4096C38.5446 20.7322 38.6584 21.0073 38.886 21.2349C39.1136 21.4625 39.3887 21.5763 39.7113 21.5763H41.9386V18.1824Z" fill="black"/>
<path d="M45.3323 18.1819H41.9384V21.5758H45.3323V18.1819Z" fill="black"/>
<path d="M52.1193 18.1821H48.7254V20.4094C48.7254 20.732 48.8392 21.0071 49.0668 21.2347C49.2944 21.4622 49.5694 21.5761 49.892 21.5761H52.1193V18.1821Z" fill="black"/>
<path d="M54.35 18.1824H52.1227V21.5763H54.35C54.6726 21.5763 54.9477 21.4625 55.1753 21.2349C55.4028 21.0073 55.5167 20.7322 55.5167 20.4096V19.349C55.5167 19.0264 55.4028 18.7513 55.1753 18.5238C54.9477 18.2962 54.6726 18.1824 54.35 18.1824Z" fill="black"/>
<path d="M62.295 19.269H62.3017V18.1819H58.9077V19.269H58.9143C58.9099 19.3044 58.9077 19.3309 58.9077 19.3486V20.4092C58.9077 20.7317 59.0215 21.0069 59.2491 21.2344C59.4767 21.462 59.7518 21.5758 60.0744 21.5758H61.135C61.4576 21.5758 61.7327 21.462 61.9603 21.2344C62.1878 21.0069 62.3017 20.7317 62.3017 20.4092V19.3486C62.3017 19.3309 62.2995 19.3044 62.295 19.269Z" fill="black"/>
<path d="M72.4847 19.3486V18.1819H70.2574C69.9348 18.1819 69.6597 18.2957 69.4321 18.5233C69.2046 18.7509 69.0907 19.026 69.0907 19.3486V21.5758H72.4847V19.3486Z" fill="black"/>
<path d="M74.7104 18.1821H72.4831V21.5761H74.7104C75.033 21.5761 75.3081 21.4622 75.5356 21.2347C75.7632 21.0071 75.877 20.732 75.877 20.4094V19.3488C75.877 19.0262 75.7632 18.7511 75.5356 18.5235C75.3081 18.296 75.033 18.1821 74.7104 18.1821Z" fill="black"/>
<path d="M86.0596 19.3488V18.1821H83.8324C83.5098 18.1821 83.2347 18.2959 83.0071 18.5235C82.7795 18.7511 82.6657 19.0262 82.6657 19.3488V20.4094C82.6657 20.732 82.7795 21.0071 83.0071 21.2347C83.2347 21.4622 83.5098 21.5761 83.8324 21.5761H86.0596V19.3488Z" fill="black"/>
<path d="M89.4546 18.1812H86.0607V21.5751H89.4546V18.1812Z" fill="black"/>
<path d="M92.8458 18.1824H89.4518V21.5763H91.6791C92.0017 21.5763 92.2768 21.4625 92.5044 21.2349C92.7319 21.0073 92.8458 20.7322 92.8458 20.4096V18.1824Z" fill="black"/>
<path d="M45.3245 22.6618H45.3311V21.5747H41.9372V22.6618H41.9438C41.9394 22.6972 41.9372 22.7237 41.9372 22.7414V23.802C41.9372 24.1246 42.051 24.3997 42.2786 24.6272C42.5062 24.8548 42.7813 24.9686 43.1039 24.9686H44.1645C44.4871 24.9686 44.7622 24.8548 44.9897 24.6272C45.2173 24.3997 45.3311 24.1246 45.3311 23.802V22.7414C45.3311 22.7237 45.329 22.6972 45.3245 22.6618Z" fill="black"/>
<path d="M65.6964 22.7404V21.5737H63.4691C63.1465 21.5737 62.8714 21.6875 62.6438 21.9151C62.4163 22.1427 62.3024 22.4178 62.3024 22.7404V23.801C62.3024 24.1236 62.4162 24.3987 62.6438 24.6263C62.8714 24.8538 63.1465 24.9677 63.4691 24.9677H65.6964V22.7404Z" fill="black"/>
<path d="M69.0904 21.574H65.6965V24.9679H69.0904V21.574Z" fill="black"/>
<path d="M72.4847 21.5742H69.0907V24.9682H72.4847V21.5742Z" fill="black"/>
<path d="M38.545 26.1354V24.9688H36.3177C35.9951 24.9688 35.72 25.0825 35.4925 25.3101C35.2649 25.5377 35.1511 25.8128 35.1511 26.1354V28.3627H38.545V26.1354Z" fill="black"/>
<path d="M40.7719 24.969H38.5446V28.3629H40.7719C41.0945 28.3629 41.3696 28.2491 41.5972 28.0215C41.8247 27.794 41.9386 27.5189 41.9386 27.1963V26.1357C41.9386 25.8131 41.8247 25.538 41.5972 25.3104C41.3696 25.0828 41.0945 24.969 40.7719 24.969Z" fill="black"/>
<path d="M48.7266 27.1958C48.7266 27.5184 48.6127 27.7935 48.3852 28.021C48.1576 28.2486 47.8826 28.3624 47.5599 28.3624H46.4993C46.1768 28.3624 45.9017 28.2486 45.6741 28.021C45.4465 27.7935 45.3327 27.5184 45.3327 27.1958V26.1352C45.3327 25.8126 45.4465 25.5375 45.6741 25.3099C45.9017 25.0823 46.1768 24.9685 46.4993 24.9685H47.5599C47.8826 24.9685 48.1577 25.0823 48.3852 25.3099C48.6128 25.5375 48.7266 25.8126 48.7266 26.1352V27.1958Z" fill="black"/>
<path d="M62.3017 27.1963C62.3017 27.5189 62.1878 27.794 61.9603 28.0215C61.7327 28.2491 61.4576 28.3629 61.135 28.3629H60.0744C59.7518 28.3629 59.4767 28.2491 59.2491 28.0215C59.0215 27.794 58.9077 27.5189 58.9077 27.1963V26.1357C58.9077 25.8131 59.0215 25.538 59.2491 25.3104C59.4767 25.0828 59.7518 24.969 60.0744 24.969H61.135C61.4577 24.969 61.7328 25.0828 61.9603 25.3104C62.1878 25.538 62.3017 25.8131 62.3017 26.1357V27.1963Z" fill="black"/>
<path d="M72.4847 24.9685H69.0907V28.3624H72.4847V24.9685Z" fill="black"/>
<path d="M82.6662 26.1352V24.9685H80.4389C80.1163 24.9685 79.8412 25.0823 79.6136 25.3099C79.3861 25.5375 79.2722 25.8126 79.2722 26.1352V27.1958C79.2722 27.5184 79.386 27.7935 79.6136 28.021C79.8412 28.2486 80.1163 28.3624 80.4389 28.3624H82.6662V26.1352Z" fill="black"/>
<path d="M86.0599 24.969H82.666V28.3629H86.0599V24.969Z" fill="black"/>
<path d="M89.4546 24.9688H86.0607V28.3627H89.4546V24.9688Z" fill="black"/>
<path d="M92.8458 26.1357C92.8458 25.8131 92.7319 25.538 92.5044 25.3104C92.2768 25.0828 92.0017 24.969 91.6791 24.969H89.4518V28.3629H92.8458V26.1357Z" fill="black"/>
<path d="M38.5453 28.3633H35.1513V31.7572H38.5453V28.3633Z" fill="black"/>
<path d="M45.3311 30.5906C45.3311 30.9132 45.2173 31.1883 44.9897 31.4158C44.7622 31.6434 44.4871 31.7572 44.1645 31.7572H43.1039C42.7813 31.7572 42.5062 31.6434 42.2786 31.4158C42.051 31.1883 41.9372 30.9132 41.9372 30.5906V29.5299C41.9372 29.2074 42.051 28.9323 42.2786 28.7047C42.5062 28.4771 42.7813 28.3633 43.1039 28.3633H44.1645C44.4872 28.3633 44.7622 28.4771 44.9897 28.7047C45.2173 28.9323 45.3311 29.2074 45.3311 29.5299V30.5906Z" fill="black"/>
<path d="M52.1193 30.591C52.1193 30.9137 52.0054 31.1887 51.7779 31.4163C51.5503 31.6438 51.2753 31.7577 50.9526 31.7577H49.892C49.5695 31.7577 49.2944 31.6438 49.0668 31.4163C48.8392 31.1887 48.7254 30.9137 48.7254 30.591V29.5304C48.7254 29.2079 48.8392 28.9328 49.0668 28.7052C49.2944 28.4776 49.5695 28.3638 49.892 28.3638H50.9526C51.2753 28.3638 51.5504 28.4776 51.7779 28.7052C52.0055 28.9328 52.1193 29.2079 52.1193 29.5304V30.591Z" fill="black"/>
<path d="M58.9083 30.5908C58.9083 30.9135 58.7944 31.1885 58.5669 31.4161C58.3393 31.6436 58.0643 31.7575 57.7416 31.7575H56.681C56.3584 31.7575 56.0833 31.6436 55.8558 31.4161C55.6282 31.1885 55.5143 30.9135 55.5143 30.5908V29.5302C55.5143 29.2076 55.6281 28.9325 55.8557 28.705C56.0834 28.4774 56.3584 28.3635 56.681 28.3635H57.7416C58.0643 28.3635 58.3394 28.4773 58.5669 28.7049C58.7944 28.9326 58.9083 29.2076 58.9083 29.5302V30.5908Z" fill="black"/>
<path d="M65.6964 30.5903C65.6964 30.913 65.5825 31.188 65.355 31.4156C65.1274 31.6431 64.8524 31.757 64.5297 31.757H63.4691C63.1466 31.757 62.8714 31.6431 62.6439 31.4156C62.4163 31.188 62.3024 30.913 62.3024 30.5903V29.5297C62.3024 29.2071 62.4162 28.932 62.6438 28.7045C62.8715 28.4769 63.1466 28.363 63.4691 28.363H64.5297C64.8524 28.363 65.1275 28.4768 65.355 28.7044C65.5825 28.9321 65.6964 29.2071 65.6964 29.5297V30.5903Z" fill="black"/>
<path d="M72.478 29.4506H72.4847V28.3635H69.0907V29.4506H69.0973C69.0929 29.486 69.0907 29.5125 69.0907 29.5302V30.5908C69.0907 30.9134 69.2045 31.1885 69.4321 31.4161C69.6597 31.6436 69.9348 31.7575 70.2574 31.7575H71.318C71.6406 31.7575 71.9157 31.6436 72.1433 31.4161C72.3708 31.1885 72.4847 30.9134 72.4847 30.5908V29.5302C72.4847 29.5125 72.4825 29.486 72.478 29.4506Z" fill="black"/>
<path d="M79.2717 29.5297C79.2717 29.2071 79.1578 28.932 78.9303 28.7044C78.7027 28.4769 78.4276 28.363 78.105 28.363H77.0444C76.7218 28.363 76.4467 28.4768 76.2191 28.7044C75.9915 28.932 75.8777 29.2071 75.8777 29.5297V30.5903C75.8777 30.608 75.8799 30.6345 75.8843 30.6699H75.8777V31.757H79.2717V30.6699H79.265C79.2695 30.6345 79.2717 30.608 79.2717 30.5903V29.5297Z" fill="black"/>
<path d="M86.0599 28.3633H82.666V31.7572H86.0599V28.3633Z" fill="black"/>
<path d="M92.8392 29.4506H92.8458V28.3635H89.4518V29.4506H89.4585C89.454 29.486 89.4518 29.5125 89.4518 29.5302V30.5908C89.4518 30.9134 89.5656 31.1885 89.7932 31.4161C90.0208 31.6436 90.2959 31.7575 90.6185 31.7575H91.6791C92.0017 31.7575 92.2768 31.6436 92.5044 31.4161C92.7319 31.1885 92.8458 30.9134 92.8458 30.5908V29.5302C92.8458 29.5125 92.8436 29.486 92.8392 29.4506Z" fill="black"/>
<path d="M38.5453 31.7573H35.1513V35.1513H38.5453V31.7573Z" fill="black"/>
<path d="M40.7729 31.7578H38.5456V35.1517H40.7729C41.0955 35.1517 41.3706 35.0379 41.5981 34.8104C41.8257 34.5828 41.9395 34.3077 41.9395 33.9851V32.9245C41.9395 32.6019 41.8257 32.3268 41.5981 32.0992C41.3706 31.8716 41.0955 31.7578 40.7729 31.7578Z" fill="black"/>
<path d="M62.3017 33.9846C62.3017 34.3073 62.1878 34.5823 61.9603 34.8099C61.7327 35.0374 61.4576 35.1513 61.135 35.1513H60.0744C59.7518 35.1513 59.4767 35.0374 59.2491 34.8099C59.0215 34.5823 58.9077 34.3073 58.9077 33.9846V32.924C58.9077 32.6014 59.0215 32.3263 59.2491 32.0988C59.4767 31.8712 59.7518 31.7573 60.0744 31.7573H61.135C61.4577 31.7573 61.7328 31.8711 61.9603 32.0987C62.1878 32.3264 62.3017 32.6014 62.3017 32.924V33.9846Z" fill="black"/>
<path d="M69.0901 33.9844C69.0901 34.307 68.9763 34.5821 68.7487 34.8096C68.5212 35.0371 68.2461 35.151 67.9235 35.151H66.8629C66.5403 35.151 66.2652 35.0371 66.0376 34.8096C65.81 34.5821 65.6962 34.307 65.6962 33.9844V32.9237C65.6962 32.6012 65.81 32.3261 66.0376 32.0985C66.2652 31.8709 66.5403 31.7571 66.8629 31.7571H67.9235C68.2462 31.7571 68.5212 31.8709 68.7487 32.0985C68.9763 32.3261 69.0901 32.6012 69.0901 32.9237V33.9844Z" fill="black"/>
<path d="M75.877 32.9245V31.7578H73.6498C73.3272 31.7578 73.0521 31.8716 72.8245 32.0992C72.5969 32.3268 72.4831 32.6019 72.4831 32.9245V33.9851C72.4831 34.3077 72.5969 34.5828 72.8245 34.8104C73.0521 35.0379 73.3272 35.1517 73.6498 35.1517H75.877V32.9245Z" fill="black"/>
<path d="M79.2718 31.7576H75.8779V35.1515H79.2718V31.7576Z" fill="black"/>
<path d="M82.6665 31.7573H79.2725V35.1513H82.6665V31.7573Z" fill="black"/>
<path d="M86.0599 31.7573H82.666V35.1513H86.0599V31.7573Z" fill="black"/>
<path d="M89.4542 32.9245C89.4542 32.6019 89.3403 32.3268 89.1128 32.0992C88.8852 31.8716 88.6101 31.7578 88.2875 31.7578H86.0602V35.1517H89.4542V32.9245Z" fill="black"/>
<path d="M18.1818 36.3175V35.1509H15.9545C15.6319 35.1509 15.3568 35.2647 15.1293 35.4923C14.9017 35.7199 14.7879 35.995 14.7879 36.3175V37.3781C14.7879 37.7007 14.9017 37.9759 15.1293 38.2034C15.3569 38.431 15.6319 38.5448 15.9545 38.5448H18.1818V36.3175Z" fill="black"/>
<path d="M21.5755 35.1511H18.1816V38.5451H21.5755V35.1511Z" fill="black"/>
<path d="M24.9698 36.318C24.9698 35.9954 24.856 35.7203 24.6284 35.4928C24.4008 35.2652 24.1257 35.1514 23.8031 35.1514H21.5759V38.5453H24.9698V36.318Z" fill="black"/>
<path d="M31.756 37.3786C31.756 37.7013 31.6421 37.9763 31.4146 38.2039C31.1871 38.4314 30.912 38.5453 30.5893 38.5453H29.5287C29.2062 38.5453 28.9311 38.4314 28.7035 38.2039C28.4759 37.9763 28.3621 37.7013 28.3621 37.3786V36.318C28.3621 35.9955 28.4759 35.7204 28.7035 35.4928C28.9311 35.2652 29.2062 35.1514 29.5287 35.1514H30.5893C30.912 35.1514 31.1871 35.2652 31.4146 35.4928C31.6422 35.7204 31.756 35.9955 31.756 36.318V37.3786Z" fill="black"/>
<path d="M38.5384 36.2385H38.545V35.1514H35.1511V36.2385H35.1577C35.1533 36.2738 35.1511 36.3004 35.1511 36.318V37.3786C35.1511 37.7012 35.2649 37.9763 35.4925 38.2039C35.7201 38.4315 35.9951 38.5453 36.3177 38.5453H37.3783C37.7009 38.5453 37.976 38.4315 38.2036 38.2039C38.4312 37.9763 38.545 37.7012 38.545 37.3786V36.318C38.545 36.3004 38.5429 36.2738 38.5384 36.2385Z" fill="black"/>
<path d="M48.7266 36.3178V35.1511H46.4993C46.1767 35.1511 45.9016 35.2649 45.6741 35.4925C45.4465 35.7201 45.3327 35.9952 45.3327 36.3178V37.3784C45.3327 37.701 45.4465 37.9761 45.6741 38.2037C45.9017 38.4312 46.1767 38.5451 46.4993 38.5451H48.7266V36.3178Z" fill="black"/>
<path d="M52.1206 35.1509H48.7267V38.5448H52.1206V35.1509Z" fill="black"/>
<path d="M55.514 35.1509H52.1201V38.5448H55.514V35.1509Z" fill="black"/>
<path d="M58.9083 36.318C58.9083 35.9954 58.7944 35.7203 58.5669 35.4928C58.3393 35.2652 58.0642 35.1514 57.7416 35.1514H55.5143V38.5453H58.9083V36.318Z" fill="black"/>
<path d="M72.4847 36.3178C72.4847 35.9952 72.3708 35.7201 72.1433 35.4925C71.9157 35.265 71.6406 35.1511 71.318 35.1511H70.2574C69.9348 35.1511 69.6597 35.2649 69.4321 35.4925C69.2046 35.7201 69.0907 35.9952 69.0907 36.3178V37.3784C69.0907 37.3961 69.0929 37.4226 69.0973 37.4579H69.0907V38.5451H72.4847V37.4579H72.478C72.4825 37.4226 72.4847 37.3961 72.4847 37.3784V36.3178Z" fill="black"/>
<path d="M79.2718 35.1511H75.8779V38.5451H79.2718V35.1511Z" fill="black"/>
<path d="M89.4546 35.1511H86.0607V38.5451H89.4546V35.1511Z" fill="black"/>
<path d="M92.8461 35.1511H89.4521V38.5451H92.8461V35.1511Z" fill="black"/>
<path d="M96.2406 35.1511H92.8466V38.5451H96.2406V35.1511Z" fill="black"/>
<path d="M99.6352 35.1511H96.2413V38.5451H99.6352V35.1511Z" fill="black"/>
<path d="M101.866 35.1514H99.6384V38.5453H101.866C102.188 38.5453 102.463 38.4315 102.691 38.2039C102.918 37.9763 103.032 37.7012 103.032 37.3786V36.318C103.032 35.9954 102.918 35.7203 102.691 35.4928C102.463 35.2652 102.188 35.1514 101.866 35.1514Z" fill="black"/>
<path d="M113.213 36.3178V35.1511H110.986C110.663 35.1511 110.388 35.2649 110.161 35.4925C109.933 35.7201 109.819 35.9952 109.819 36.3178V37.3784C109.819 37.701 109.933 37.9761 110.161 38.2037C110.388 38.4312 110.663 38.5451 110.986 38.5451H113.213V36.3178Z" fill="black"/>
<path d="M116.606 35.1509H113.212V38.5448H116.606V35.1509Z" fill="black"/>
<path d="M120 36.3178C120 35.9952 119.886 35.7201 119.659 35.4925C119.431 35.265 119.156 35.1511 118.834 35.1511H116.606V38.5451H120V36.3178Z" fill="black"/>
<path d="M11.3926 40.7724C11.3926 41.0951 11.2788 41.3701 11.0513 41.5977C10.8237 41.8252 10.5486 41.9391 10.226 41.9391H9.16538C8.84282 41.9391 8.5677 41.8252 8.34014 41.5977C8.11254 41.3701 7.99871 41.0951 7.99871 40.7724V39.7118C7.99871 39.3893 8.11251 39.1142 8.34011 38.8866C8.56774 38.659 8.84282 38.5452 9.16538 38.5452H10.226C10.5487 38.5452 10.8238 38.659 11.0513 38.8866C11.2788 39.1142 11.3926 39.3893 11.3926 39.7118V40.7724Z" fill="black"/>
<path d="M21.5755 38.5452H18.1816V41.9391H21.5755V38.5452Z" fill="black"/>
<path d="M24.9702 38.5452H21.5763V41.9391H24.9702V38.5452Z" fill="black"/>
<path d="M27.1947 38.5454H24.9675V41.9393H27.1947C27.5173 41.9393 27.7924 41.8255 28.02 41.5979C28.2476 41.3704 28.3614 41.0953 28.3614 40.7727V39.7121C28.3614 39.3895 28.2476 39.1144 28.02 38.8868C27.7924 38.6592 27.5173 38.5454 27.1947 38.5454Z" fill="black"/>
<path d="M45.3311 39.7121C45.3311 39.3895 45.2173 39.1144 44.9897 38.8868C44.7622 38.6592 44.4871 38.5454 44.1645 38.5454H43.1039C42.7813 38.5454 42.5062 38.6592 42.2786 38.8868C42.051 39.1144 41.9372 39.3895 41.9372 39.7121V40.7727C41.9372 40.7904 41.9394 40.8169 41.9438 40.8522H41.9372V41.9393H45.3311V40.8522H45.3245C45.329 40.8169 45.3311 40.7904 45.3311 40.7727V39.7121Z" fill="black"/>
<path d="M58.9095 38.5449H55.5156V41.9389H58.9095V38.5449Z" fill="black"/>
<path d="M62.3023 38.5449H58.9083V41.9389H62.3023V38.5449Z" fill="black"/>
<path d="M65.6967 38.5449H62.3027V41.9389H65.6967V38.5449Z" fill="black"/>
<path d="M69.0904 38.5449H65.6965V41.9389H69.0904V38.5449Z" fill="black"/>
<path d="M72.4847 38.5449H69.0907V41.9389H72.4847V38.5449Z" fill="black"/>
<path d="M75.8773 38.5452H72.4834V41.9391H75.8773V38.5452Z" fill="black"/>
<path d="M79.2718 38.5452H75.8779V41.9391H79.2718V38.5452Z" fill="black"/>
<path d="M82.6662 39.7118C82.6662 39.3892 82.5523 39.1141 82.3248 38.8866C82.0972 38.659 81.8221 38.5452 81.4995 38.5452H79.2722V41.9391H82.6662V39.7118Z" fill="black"/>
<path d="M89.4476 39.6323H89.4542V38.5452H86.0602V39.6323H86.0669C86.0624 39.6676 86.0602 39.6941 86.0602 39.7118V40.7724C86.0602 41.095 86.174 41.3701 86.4016 41.5977C86.6292 41.8253 86.9043 41.9391 87.2269 41.9391H88.2875C88.6101 41.9391 88.8852 41.8253 89.1128 41.5977C89.3403 41.3701 89.4542 41.095 89.4542 40.7724V39.7118C89.4542 39.6941 89.452 39.6676 89.4476 39.6323Z" fill="black"/>
<path d="M96.2406 38.5452H92.8466V41.9391H96.2406V38.5452Z" fill="black"/>
<path d="M99.6352 38.5452H96.2413V41.9391H99.6352V38.5452Z" fill="black"/>
<path d="M116.606 38.5449H113.212V41.9389H116.606V38.5449Z" fill="black"/>
<path d="M120 38.5449H116.606V41.9389H118.834C119.156 41.9389 119.431 41.825 119.659 41.5975C119.886 41.3699 120 41.0948 120 40.7722V38.5449Z" fill="black"/>
<path d="M14.7873 43.1061V41.9395H12.56C12.2374 41.9395 11.9623 42.0533 11.7347 42.2808C11.5072 42.5084 11.3933 42.7835 11.3933 43.1061V44.1667C11.3933 44.4893 11.5071 44.7644 11.7347 44.992C11.9623 45.2196 12.2374 45.3334 12.56 45.3334H14.7873V43.1061Z" fill="black"/>
<path d="M18.1821 41.9395H14.7881V45.3334H18.1821V41.9395Z" fill="black"/>
<path d="M21.5755 41.9395H18.1816V45.3334H21.5755V41.9395Z" fill="black"/>
<path d="M24.9702 41.9395H21.5763V45.3334H24.9702V41.9395Z" fill="black"/>
<path d="M31.756 44.1667C31.756 44.4894 31.6421 44.7644 31.4146 44.992C31.1871 45.2195 30.912 45.3334 30.5893 45.3334H29.5287C29.2062 45.3334 28.9311 45.2195 28.7035 44.992C28.4759 44.7644 28.3621 44.4894 28.3621 44.1667V43.1061C28.3621 42.7836 28.4759 42.5084 28.7035 42.2809C28.9311 42.0533 29.2062 41.9395 29.5287 41.9395H30.5893C30.912 41.9395 31.1871 42.0533 31.4146 42.2808C31.6422 42.5085 31.756 42.7836 31.756 43.1061V44.1667Z" fill="black"/>
<path d="M38.545 43.1064C38.545 42.7838 38.4312 42.5087 38.2036 42.2811C37.976 42.0535 37.7009 41.9397 37.3783 41.9397H36.3177C35.9951 41.9397 35.72 42.0535 35.4925 42.2811C35.2649 42.5087 35.1511 42.7838 35.1511 43.1064V44.167C35.1511 44.1846 35.1533 44.2112 35.1577 44.2465H35.1511V45.3336H38.545V44.2465H38.5384C38.5429 44.2112 38.545 44.1847 38.545 44.167V43.1064Z" fill="black"/>
<path d="M45.3245 43.0268H45.3311V41.9397H41.9372V43.0268H41.9438C41.9394 43.0622 41.9372 43.0887 41.9372 43.1064V44.167C41.9372 44.4896 42.051 44.7647 42.2786 44.9922C42.5062 45.2198 42.7813 45.3336 43.1039 45.3336H44.1645C44.4871 45.3336 44.7622 45.2198 44.9897 44.9922C45.2173 44.7647 45.3311 44.4896 45.3311 44.167V43.1064C45.3311 43.0887 45.329 43.0622 45.3245 43.0268Z" fill="black"/>
<path d="M52.1193 44.167C52.1193 44.4896 52.0054 44.7647 51.7779 44.9922C51.5503 45.2198 51.2753 45.3336 50.9526 45.3336H49.892C49.5695 45.3336 49.2944 45.2198 49.0668 44.9922C48.8392 44.7647 48.7254 44.4896 48.7254 44.167V43.1064C48.7254 42.7838 48.8392 42.5087 49.0668 42.2811C49.2944 42.0535 49.5695 41.9397 49.892 41.9397H50.9526C51.2753 41.9397 51.5504 42.0535 51.7779 42.2811C52.0055 42.5087 52.1193 42.7838 52.1193 43.1064V44.167Z" fill="black"/>
<path d="M58.9017 43.0271H58.9083V41.9399H55.5143V43.0271H55.521C55.5165 43.0624 55.5143 43.0889 55.5143 43.1066V44.1672C55.5143 44.4898 55.6281 44.7649 55.8557 44.9925C56.0833 45.22 56.3584 45.3339 56.681 45.3339H57.7416C58.0642 45.3339 58.3393 45.22 58.5669 44.9925C58.7944 44.7649 58.9083 44.4898 58.9083 44.1672V43.1066C58.9083 43.0889 58.9061 43.0624 58.9017 43.0271Z" fill="black"/>
<path d="M65.6898 43.0266H65.6964V41.9395H62.3024V43.0266H62.3091C62.3047 43.0619 62.3024 43.0884 62.3024 43.1061V44.1667C62.3024 44.4893 62.4162 44.7644 62.6438 44.992C62.8714 45.2196 63.1465 45.3334 63.4691 45.3334H64.5297C64.8523 45.3334 65.1274 45.2196 65.355 44.992C65.5825 44.7644 65.6964 44.4893 65.6964 44.1667V43.1061C65.6964 43.0884 65.6942 43.0619 65.6898 43.0266Z" fill="black"/>
<path d="M72.4847 41.9395H69.0907V44.1667C69.0907 44.4893 69.2045 44.7644 69.4321 44.992C69.6597 45.2196 69.9348 45.3334 70.2574 45.3334H72.4847V41.9395Z" fill="black"/>
<path d="M75.8773 41.9395H72.4834V45.3334H75.8773V41.9395Z" fill="black"/>
<path d="M79.2718 41.9395H75.8779V45.3334H79.2718V41.9395Z" fill="black"/>
<path d="M82.6662 41.9395H79.2722V45.3334H81.4995C81.8221 45.3334 82.0972 45.2196 82.3248 44.992C82.5523 44.7644 82.6662 44.4893 82.6662 44.1667V41.9395Z" fill="black"/>
<path d="M96.2404 41.9395H92.8465V44.1667C92.8465 44.4893 92.9603 44.7644 93.1879 44.992C93.4155 45.2196 93.6905 45.3334 94.0131 45.3334H96.2404V41.9395Z" fill="black"/>
<path d="M99.6352 41.9395H96.2413V45.3334H99.6352V41.9395Z" fill="black"/>
<path d="M101.866 41.9399H99.6384V45.3339H101.866C102.188 45.3339 102.463 45.22 102.691 44.9925C102.918 44.7649 103.032 44.4898 103.032 44.1672V43.1066C103.032 42.784 102.918 42.5089 102.691 42.2813C102.463 42.0538 102.188 41.9399 101.866 41.9399Z" fill="black"/>
<path d="M109.819 43.1064V41.9397H107.591C107.269 41.9397 106.994 42.0535 106.766 42.2811C106.538 42.5087 106.425 42.7838 106.425 43.1064V45.3336H109.819V43.1064Z" fill="black"/>
<path d="M113.212 41.9392H109.818V45.3331H113.212V41.9392Z" fill="black"/>
<path d="M116.606 41.9392H113.212V45.3331H116.606V41.9392Z" fill="black"/>
<path d="M18.1818 45.3337H14.7879V47.561C14.7879 47.8836 14.9017 48.1587 15.1293 48.3863C15.3569 48.6138 15.6319 48.7277 15.9545 48.7277H18.1818V45.3337Z" fill="black"/>
<path d="M21.5755 45.333H18.1816V48.7269H21.5755V45.333Z" fill="black"/>
<path d="M24.9702 45.333H21.5763V48.7269H24.9702V45.333Z" fill="black"/>
<path d="M35.1516 46.5006V45.334H32.9243C32.6017 45.334 32.3266 45.4478 32.099 45.6754C31.8715 45.903 31.7577 46.1781 31.7577 46.5006V48.7279H35.1516V46.5006Z" fill="black"/>
<path d="M38.545 45.3342H35.1511V48.7282H37.3783C37.7009 48.7282 37.976 48.6143 38.2036 48.3868C38.4312 48.1592 38.545 47.8841 38.545 47.5615V45.3342Z" fill="black"/>
<path d="M86.0596 46.5009V45.3342H83.8324C83.5098 45.3342 83.2347 45.448 83.0071 45.6756C82.7795 45.9032 82.6657 46.1783 82.6657 46.5009V47.5615C82.6657 47.8841 82.7795 48.1592 83.0071 48.3868C83.2347 48.6143 83.5098 48.7282 83.8324 48.7282H86.0596V46.5009Z" fill="black"/>
<path d="M89.4542 46.5009C89.4542 46.1783 89.3403 45.9032 89.1128 45.6756C88.8852 45.4481 88.6101 45.3342 88.2875 45.3342H86.0602V48.7282H89.4542V46.5009Z" fill="black"/>
<path d="M99.6283 46.4211H99.6349V45.334H96.241V46.4211H96.2476C96.2432 46.4565 96.241 46.483 96.241 46.5006V47.5613C96.241 47.8838 96.3548 48.159 96.5824 48.3865C96.81 48.6141 97.0851 48.7279 97.4076 48.7279H98.4683C98.7908 48.7279 99.066 48.6141 99.2935 48.3865C99.5211 48.159 99.6349 47.8838 99.6349 47.5613V46.5006C99.6349 46.483 99.6328 46.4565 99.6283 46.4211Z" fill="black"/>
<path d="M109.819 45.334H106.425V47.5613C106.425 47.8838 106.538 48.159 106.766 48.3865C106.994 48.6141 107.269 48.7279 107.591 48.7279H109.819V45.334Z" fill="black"/>
<path d="M113.212 45.333H109.818V48.7269H113.212V45.333Z" fill="black"/>
<path d="M116.606 45.333H113.212V48.7269H116.606V45.333Z" fill="black"/>
<path d="M118.834 45.3342H116.607V48.7282H118.834C119.157 48.7282 119.432 48.6143 119.66 48.3868C119.887 48.1592 120.001 47.8841 120.001 47.5615V46.5009C120.001 46.1783 119.887 45.9032 119.66 45.6756C119.432 45.4481 119.157 45.3342 118.834 45.3342Z" fill="black"/>
<path d="M11.3926 50.9529C11.3926 51.2755 11.2788 51.5506 11.0513 51.7781C10.8237 52.0057 10.5486 52.1195 10.226 52.1195H9.16538C8.84282 52.1195 8.5677 52.0057 8.34014 51.7781C8.11254 51.5506 7.99871 51.2755 7.99871 50.9529V49.8923C7.99871 49.5697 8.11251 49.2946 8.34011 49.067C8.56774 48.8394 8.84282 48.7256 9.16538 48.7256H10.226C10.5487 48.7256 10.8238 48.8394 11.0513 49.067C11.2788 49.2946 11.3926 49.5697 11.3926 49.8923V50.9529Z" fill="black"/>
<path d="M24.9632 49.8127H24.9698V48.7256H21.5759V49.8127H21.5825C21.5781 49.8481 21.5759 49.8746 21.5759 49.8923V50.9529C21.5759 51.2754 21.6897 51.5506 21.9173 51.7781C22.1449 52.0057 22.4199 52.1195 22.7425 52.1195H23.8031C24.1257 52.1195 24.4008 52.0057 24.6284 51.7781C24.856 51.5506 24.9698 51.2754 24.9698 50.9529V49.8923C24.9698 49.8746 24.9677 49.8481 24.9632 49.8127Z" fill="black"/>
<path d="M31.756 49.8923V48.7256H29.5287C29.2061 48.7256 28.931 48.8394 28.7035 49.067C28.4759 49.2946 28.3621 49.5697 28.3621 49.8923V50.9529C28.3621 51.2754 28.4759 51.5506 28.7035 51.7781C28.9311 52.0057 29.2061 52.1195 29.5287 52.1195H31.756V49.8923Z" fill="black"/>
<path d="M35.1519 48.7258H31.7579V52.1198H35.1519V48.7258Z" fill="black"/>
<path d="M41.9386 49.8927V48.7261H39.7113C39.3887 48.7261 39.1136 48.8399 38.886 49.0675C38.6584 49.2951 38.5446 49.5701 38.5446 49.8927V50.9533C38.5446 51.2759 38.6584 51.5511 38.886 51.7786C39.1136 52.0062 39.3887 52.12 39.7113 52.12H41.9386V49.8927Z" fill="black"/>
<path d="M45.3311 49.8923C45.3311 49.5697 45.2173 49.2945 44.9897 49.067C44.7622 48.8394 44.4871 48.7256 44.1645 48.7256H41.9372V52.1195H45.3311V49.8923Z" fill="black"/>
<path d="M89.4546 48.7256H86.0607V52.1195H89.4546V48.7256Z" fill="black"/>
<path d="M92.8461 48.7256H89.4521V52.1195H92.8461V48.7256Z" fill="black"/>
<path d="M96.2404 49.8923C96.2404 49.5697 96.1266 49.2945 95.899 49.067C95.6714 48.8394 95.3963 48.7256 95.0737 48.7256H92.8465V52.1195H96.2404V49.8923Z" fill="black"/>
<path d="M116.599 49.8125H116.606V48.7253H113.212V49.8125H113.218C113.214 49.8478 113.212 49.8743 113.212 49.892V50.9526C113.212 51.2752 113.326 51.5503 113.553 51.7779C113.781 52.0054 114.056 52.1193 114.378 52.1193H115.439C115.762 52.1193 116.037 52.0054 116.264 51.7779C116.492 51.5503 116.606 51.2752 116.606 50.9526V49.892C116.606 49.8743 116.604 49.8478 116.599 49.8125Z" fill="black"/>
<path d="M18.1818 53.2868C18.1818 52.9642 18.068 52.6891 17.8404 52.4615C17.6128 52.2339 17.3377 52.1201 17.0151 52.1201H15.9545C15.6319 52.1201 15.3568 52.2339 15.1293 52.4615C14.9017 52.6891 14.7879 52.9642 14.7879 53.2868V54.3474C14.7879 54.3651 14.7901 54.3916 14.7945 54.4269H14.7879V55.5141H18.1818V54.4269H18.1752C18.1797 54.3916 18.1818 54.3651 18.1818 54.3474V53.2868Z" fill="black"/>
<path d="M35.145 53.2075H35.1516V52.1204H31.7577V53.2075H31.7643C31.7599 53.2428 31.7577 53.2693 31.7577 53.287V54.3476C31.7577 54.6702 31.8715 54.9453 32.099 55.1729C32.3266 55.4005 32.6017 55.5143 32.9243 55.5143H33.9849C34.3075 55.5143 34.5826 55.4005 34.8102 55.1729C35.0378 54.9453 35.1516 54.6702 35.1516 54.3476V53.287C35.1516 53.2693 35.1494 53.2428 35.145 53.2075Z" fill="black"/>
<path d="M45.3323 52.1206H41.9384V55.5145H45.3323V52.1206Z" fill="black"/>
<path d="M86.0596 53.2873V52.1206H83.8324C83.5098 52.1206 83.2347 52.2344 83.0071 52.462C82.7795 52.6896 82.6657 52.9647 82.6657 53.2873V55.5145H86.0596V53.2873Z" fill="black"/>
<path d="M89.4542 52.1206H86.0602V55.5145H88.2875C88.6101 55.5145 88.8852 55.4007 89.1128 55.1731C89.3403 54.9456 89.4542 54.6705 89.4542 54.3479V52.1206Z" fill="black"/>
<path d="M96.2406 52.1201H92.8466V55.5141H96.2406V52.1201Z" fill="black"/>
<path d="M99.6352 52.1201H96.2413V55.5141H99.6352V52.1201Z" fill="black"/>
<path d="M101.866 52.1206H99.6384V55.5145H101.866C102.188 55.5145 102.463 55.4007 102.691 55.1731C102.918 54.9456 103.032 54.6705 103.032 54.3479V53.2873C103.032 52.9647 102.918 52.6896 102.691 52.462C102.463 52.2344 102.188 52.1206 101.866 52.1206Z" fill="black"/>
<path d="M113.213 53.2868C113.213 52.9642 113.099 52.6891 112.872 52.4615C112.644 52.2339 112.369 52.1201 112.046 52.1201H110.986C110.663 52.1201 110.388 52.2339 110.161 52.4615C109.933 52.6891 109.819 52.9642 109.819 53.2868V54.3474C109.819 54.3651 109.821 54.3916 109.826 54.4269H109.819V55.5141H113.213V54.4269H113.206C113.211 54.3916 113.213 54.3651 113.213 54.3474V53.2868Z" fill="black"/>
<path d="M120 54.3476C120 54.6703 119.886 54.9453 119.659 55.1729C119.431 55.4004 119.156 55.5143 118.834 55.5143H117.773C117.45 55.5143 117.175 55.4004 116.948 55.1729C116.72 54.9453 116.606 54.6703 116.606 54.3476V53.287C116.606 52.9645 116.72 52.6894 116.948 52.4618C117.175 52.2342 117.45 52.1204 117.773 52.1204H118.834C119.156 52.1204 119.431 52.2342 119.659 52.4618C119.886 52.6894 120 52.9645 120 53.287V54.3476Z" fill="black"/>
<path d="M11.3926 56.6818V55.5151H9.16538C8.84278 55.5151 8.56767 55.6289 8.34011 55.8565C8.11254 56.0841 7.99871 56.3592 7.99871 56.6818V58.9091H11.3926V56.6818Z" fill="black"/>
<path d="M14.7875 55.5154H11.3935V58.9093H14.7875V55.5154Z" fill="black"/>
<path d="M18.1818 55.5146H14.7879V58.9086H17.0151C17.3377 58.9086 17.6128 58.7948 17.8404 58.5672C18.068 58.3396 18.1818 58.0645 18.1818 57.7419V55.5146Z" fill="black"/>
<path d="M28.3614 56.6823V55.5156H26.1341C25.8115 55.5156 25.5364 55.6294 25.3089 55.857C25.0813 56.0846 24.9675 56.3597 24.9675 56.6823V57.7429C24.9675 58.0655 25.0813 58.3406 25.3089 58.5682C25.5365 58.7957 25.8115 58.9096 26.1341 58.9096H28.3614V56.6823Z" fill="black"/>
<path d="M30.5893 55.5156H28.3621V58.9096H30.5893C30.9119 58.9096 31.1871 58.7957 31.4146 58.5682C31.6422 58.3406 31.756 58.0655 31.756 57.7429V56.6823C31.756 56.3597 31.6422 56.0846 31.4146 55.857C31.1871 55.6295 30.9119 55.5156 30.5893 55.5156Z" fill="black"/>
<path d="M38.545 57.7427C38.545 58.0653 38.4311 58.3404 38.2036 58.5679C37.976 58.7954 37.701 58.9093 37.3783 58.9093H36.3177C35.9952 58.9093 35.7201 58.7954 35.4925 58.5679C35.2649 58.3404 35.1511 58.0653 35.1511 57.7427V56.682C35.1511 56.3595 35.2649 56.0844 35.4925 55.8568C35.7201 55.6292 35.9952 55.5154 36.3177 55.5154H37.3783C37.701 55.5154 37.9761 55.6292 38.2036 55.8568C38.4312 56.0844 38.545 56.3595 38.545 56.682V57.7427Z" fill="black"/>
<path d="M45.3323 55.5154H41.9384V58.9093H45.3323V55.5154Z" fill="black"/>
<path d="M86.0599 55.5151H82.666V58.9091H86.0599V55.5151Z" fill="black"/>
<path d="M92.8458 56.6818V55.5151H90.6185C90.2959 55.5151 90.0208 55.6289 89.7932 55.8565C89.5657 56.0841 89.4518 56.3592 89.4518 56.6818V57.7424C89.4518 58.065 89.5656 58.3401 89.7932 58.5677C90.0208 58.7952 90.2959 58.9091 90.6185 58.9091H92.8458V56.6818Z" fill="black"/>
<path d="M96.2406 55.5154H92.8466V58.9093H96.2406V55.5154Z" fill="black"/>
<path d="M99.6352 55.5151H96.2413V58.9091H99.6352V55.5151Z" fill="black"/>
<path d="M109.819 56.6816V55.5149H107.591C107.269 55.5149 106.994 55.6287 106.766 55.8563C106.538 56.0839 106.425 56.359 106.425 56.6816V57.7422C106.425 58.0648 106.538 58.3399 106.766 58.5674C106.994 58.795 107.269 58.9088 107.591 58.9088H109.819V56.6816Z" fill="black"/>
<path d="M113.212 55.5149H109.818V58.9088H113.212V55.5149Z" fill="black"/>
<path d="M116.606 56.6816C116.606 56.359 116.492 56.0839 116.264 55.8563C116.037 55.6287 115.762 55.5149 115.439 55.5149H113.212V58.9088H116.606V56.6816Z" fill="black"/>
<path d="M11.3929 58.9084H7.99899V62.3024H11.3929V58.9084Z" fill="black"/>
<path d="M14.7873 58.9084H11.3933V62.3024H13.6206C13.9432 62.3024 14.2183 62.1886 14.4459 61.961C14.6734 61.7334 14.7873 61.4583 14.7873 61.1357V58.9084Z" fill="black"/>
<path d="M24.9698 61.1364C24.9698 61.4591 24.8559 61.7342 24.6284 61.9617C24.4008 62.1892 24.1258 62.3031 23.8031 62.3031H22.7425C22.42 62.3031 22.1449 62.1892 21.9173 61.9617C21.6897 61.7342 21.5759 61.4591 21.5759 61.1364V60.0758C21.5759 59.7533 21.6897 59.4782 21.9173 59.2506C22.1449 59.023 22.42 58.9092 22.7425 58.9092H23.8031C24.1258 58.9092 24.4009 59.023 24.6284 59.2506C24.856 59.4782 24.9698 59.7533 24.9698 60.0758V61.1364Z" fill="black"/>
<path d="M35.1516 60.0756C35.1516 59.753 35.0378 59.4779 34.8102 59.2503C34.5826 59.0228 34.3075 58.9089 33.9849 58.9089H32.9243C32.6017 58.9089 32.3266 59.0227 32.099 59.2503C31.8715 59.4779 31.7577 59.753 31.7577 60.0756V61.1362C31.7577 61.1539 31.7599 61.1804 31.7643 61.2158H31.7577V62.3029H35.1516V61.2158H35.145C35.1494 61.1804 35.1516 61.1539 35.1516 61.1362V60.0756Z" fill="black"/>
<path d="M45.3245 59.9963H45.3311V58.9092H41.9372V59.9963H41.9438C41.9394 60.0317 41.9372 60.0582 41.9372 60.0758V61.1364C41.9372 61.459 42.051 61.7342 42.2786 61.9617C42.5062 62.1893 42.7813 62.3031 43.1039 62.3031H44.1645C44.4871 62.3031 44.7622 62.1893 44.9897 61.9617C45.2173 61.7342 45.3311 61.459 45.3311 61.1364V60.0758C45.3311 60.0582 45.329 60.0317 45.3245 59.9963Z" fill="black"/>
<path d="M86.0596 58.9092H82.6657V61.1364C82.6657 61.459 82.7795 61.7342 83.0071 61.9617C83.2347 62.1893 83.5098 62.3031 83.8324 62.3031H86.0596V58.9092Z" fill="black"/>
<path d="M89.4542 60.0754C89.4542 59.7528 89.3403 59.4777 89.1128 59.2501C88.8852 59.0225 88.6101 58.9087 88.2875 58.9087H86.0602V62.3026H89.4542V60.0754Z" fill="black"/>
<path d="M99.6349 58.9084H96.241V61.1357C96.241 61.4583 96.3548 61.7334 96.5824 61.961C96.81 62.1886 97.0851 62.3024 97.4076 62.3024H99.6349V58.9084Z" fill="black"/>
<path d="M103.032 60.0754C103.032 59.7528 102.918 59.4777 102.691 59.2501C102.463 59.0225 102.188 58.9087 101.866 58.9087H99.6384V62.3026H103.032V60.0754Z" fill="black"/>
<path d="M113.212 58.9084H109.818V62.3024H113.212V58.9084Z" fill="black"/>
<path d="M116.606 58.9087H113.212V62.3026H115.439C115.762 62.3026 116.037 62.1888 116.264 61.9612C116.492 61.7337 116.606 61.4586 116.606 61.136V58.9087Z" fill="black"/>
<path d="M11.3929 62.303H7.99899V65.6969H11.3929V62.303Z" fill="black"/>
<path d="M18.1818 63.4694V62.3027H15.9545C15.6319 62.3027 15.3568 62.4165 15.1293 62.6441C14.9017 62.8717 14.7879 63.1468 14.7879 63.4694V64.53C14.7879 64.8526 14.9017 65.1277 15.1293 65.3553C15.3569 65.5828 15.6319 65.6967 15.9545 65.6967H18.1818V63.4694Z" fill="black"/>
<path d="M21.5753 63.4699C21.5753 63.1473 21.4614 62.8722 21.2339 62.6446C21.0063 62.4171 20.7312 62.3032 20.4086 62.3032H18.1813V65.6972H21.5753V63.4699Z" fill="black"/>
<path d="M31.756 63.4696V62.303H29.5287C29.2061 62.303 28.931 62.4168 28.7035 62.6444C28.4759 62.872 28.3621 63.1471 28.3621 63.4696V64.5302C28.3621 64.8528 28.4759 65.128 28.7035 65.3555C28.9311 65.5831 29.2061 65.6969 29.5287 65.6969H31.756V63.4696Z" fill="black"/>
<path d="M35.1519 62.303H31.7579V65.6969H35.1519V62.303Z" fill="black"/>
<path d="M37.3783 62.3032H35.1511V65.6972H37.3783C37.7009 65.6972 37.976 65.5833 38.2036 65.3558C38.4312 65.1282 38.545 64.8531 38.545 64.5305V63.4699C38.545 63.1473 38.4312 62.8722 38.2036 62.6446C37.976 62.4171 37.7009 62.3032 37.3783 62.3032Z" fill="black"/>
<path d="M89.4546 62.303H86.0607V65.6969H89.4546V62.303Z" fill="black"/>
<path d="M96.2404 64.5302C96.2404 64.8529 96.1265 65.128 95.899 65.3555C95.6714 65.583 95.3964 65.6969 95.0737 65.6969H94.0131C93.6906 65.6969 93.4155 65.583 93.1879 65.3555C92.9603 65.128 92.8465 64.8529 92.8465 64.5302V63.4696C92.8465 63.1471 92.9603 62.872 93.1879 62.6444C93.4155 62.4168 93.6906 62.303 94.0131 62.303H95.0737C95.3964 62.303 95.6715 62.4168 95.899 62.6444C96.1266 62.872 96.2404 63.1471 96.2404 63.4696V64.5302Z" fill="black"/>
<path d="M103.033 62.3027H99.6388V65.6967H103.033V62.3027Z" fill="black"/>
<path d="M106.424 62.3027H103.03V65.6967H106.424V62.3027Z" fill="black"/>
<path d="M109.819 62.3027H106.425V65.6967H109.819V62.3027Z" fill="black"/>
<path d="M113.213 62.303H109.819V65.6969H112.046C112.369 65.6969 112.644 65.5831 112.872 65.3555C113.099 65.128 113.213 64.8528 113.213 64.5302V62.303Z" fill="black"/>
<path d="M120 64.53C120 64.8527 119.886 65.1277 119.659 65.3553C119.431 65.5828 119.156 65.6967 118.834 65.6967H117.773C117.45 65.6967 117.175 65.5828 116.948 65.3553C116.72 65.1277 116.606 64.8527 116.606 64.53V63.4694C116.606 63.1468 116.72 62.8717 116.948 62.6442C117.175 62.4166 117.45 62.3027 117.773 62.3027H118.834C119.156 62.3027 119.431 62.4165 119.659 62.6441C119.886 62.8718 120 63.1468 120 63.4694V64.53Z" fill="black"/>
<path d="M11.3926 65.6975H7.99871V67.9248C7.99871 68.2474 8.11251 68.5225 8.34011 68.75C8.5677 68.9776 8.84278 69.0914 9.16538 69.0914H11.3926V65.6975Z" fill="black"/>
<path d="M14.7873 66.8642C14.7873 66.5416 14.6734 66.2665 14.4459 66.0389C14.2183 65.8113 13.9432 65.6975 13.6206 65.6975H11.3933V69.0914H14.7873V66.8642Z" fill="black"/>
<path d="M21.5753 65.6978H18.1813V67.925C18.1813 68.2476 18.2951 68.5227 18.5227 68.7503C18.7503 68.9779 19.0254 69.0917 19.348 69.0917H21.5753V65.6978Z" fill="black"/>
<path d="M24.9702 65.6968H21.5763V69.0907H24.9702V65.6968Z" fill="black"/>
<path d="M27.1957 65.6978H24.9684V69.0917H27.1957C27.5183 69.0917 27.7934 68.9779 28.021 68.7503C28.2485 68.5227 28.3624 68.2476 28.3624 67.925V66.8644C28.3624 66.5418 28.2485 66.2667 28.021 66.0391C27.7934 65.8116 27.5183 65.6978 27.1957 65.6978Z" fill="black"/>
<path d="M45.3311 66.8644C45.3311 66.5418 45.2173 66.2667 44.9897 66.0391C44.7622 65.8116 44.4871 65.6978 44.1645 65.6978H43.1039C42.7813 65.6978 42.5062 65.8116 42.2786 66.0391C42.051 66.2667 41.9372 66.5418 41.9372 66.8644V67.925C41.9372 67.9427 41.9394 67.9692 41.9438 68.0046H41.9372V69.0917H45.3311V68.0046H45.3245C45.329 67.9692 45.3311 67.9427 45.3311 67.925V66.8644Z" fill="black"/>
<path d="M89.4542 65.6978H86.0602V67.925C86.0602 68.2476 86.174 68.5227 86.4016 68.7503C86.6292 68.9779 86.9043 69.0917 87.2269 69.0917H89.4542V65.6978Z" fill="black"/>
<path d="M91.6791 65.6978H89.4518V69.0917H91.6791C92.0017 69.0917 92.2768 68.9779 92.5044 68.7503C92.7319 68.5227 92.8458 68.2476 92.8458 67.925V66.8644C92.8458 66.5418 92.7319 66.2667 92.5044 66.0391C92.2768 65.8116 92.0017 65.6978 91.6791 65.6978Z" fill="black"/>
<path d="M99.6349 66.8642V65.6975H97.4076C97.0851 65.6975 96.8099 65.8113 96.5824 66.0389C96.3548 66.2665 96.241 66.5416 96.241 66.8642V69.0914H99.6349V66.8642Z" fill="black"/>
<path d="M103.033 65.6965H99.6388V69.0905H103.033V65.6965Z" fill="black"/>
<path d="M14.7875 69.0911H11.3935V72.485H14.7875V69.0911Z" fill="black"/>
<path d="M18.1818 70.258C18.1818 69.9354 18.068 69.6603 17.8404 69.4327C17.6128 69.2051 17.3377 69.0913 17.0151 69.0913H14.7879V72.4852H18.1818V70.258Z" fill="black"/>
<path d="M24.9702 69.0906H21.5763V72.4845H24.9702V69.0906Z" fill="black"/>
<path d="M31.756 71.3188C31.756 71.6415 31.6421 71.9165 31.4146 72.1441C31.1871 72.3716 30.912 72.4855 30.5893 72.4855H29.5287C29.2062 72.4855 28.9311 72.3716 28.7035 72.1441C28.4759 71.9165 28.3621 71.6415 28.3621 71.3188V70.2582C28.3621 69.9357 28.4759 69.6605 28.7035 69.433C28.9311 69.2054 29.2062 69.0916 29.5287 69.0916H30.5893C30.912 69.0916 31.1871 69.2054 31.4146 69.4329C31.6422 69.6606 31.756 69.9357 31.756 70.2582V71.3188Z" fill="black"/>
<path d="M45.3245 70.1787H45.3311V69.0916H41.9372V70.1787H41.9438C41.9394 70.214 41.9372 70.2405 41.9372 70.2582V71.3188C41.9372 71.6414 42.051 71.9165 42.2786 72.1441C42.5062 72.3717 42.7813 72.4855 43.1039 72.4855H44.1645C44.4871 72.4855 44.7622 72.3717 44.9897 72.1441C45.2173 71.9165 45.3311 71.6414 45.3311 71.3188V70.2582C45.3311 70.2405 45.329 70.214 45.3245 70.1787Z" fill="black"/>
<path d="M96.2404 70.2582V69.0916H94.0131C93.6905 69.0916 93.4154 69.2054 93.1879 69.4329C92.9603 69.6605 92.8465 69.9356 92.8465 70.2582V71.3188C92.8465 71.6414 92.9603 71.9165 93.1879 72.1441C93.4155 72.3717 93.6905 72.4855 94.0131 72.4855H96.2404V70.2582Z" fill="black"/>
<path d="M99.6352 69.0913H96.2413V72.4852H99.6352V69.0913Z" fill="black"/>
<path d="M103.032 69.0916H99.6384V72.4855H101.866C102.188 72.4855 102.463 72.3717 102.691 72.1441C102.918 71.9165 103.032 71.6414 103.032 71.3188V69.0916Z" fill="black"/>
<path d="M113.213 70.2582V69.0916H110.986C110.663 69.0916 110.388 69.2054 110.161 69.4329C109.933 69.6605 109.819 69.9356 109.819 70.2582V72.4855H113.213V70.2582Z" fill="black"/>
<path d="M116.606 69.0906H113.212V72.4845H116.606V69.0906Z" fill="black"/>
<path d="M120.001 70.2582C120.001 69.9356 119.887 69.6605 119.66 69.4329C119.432 69.2054 119.157 69.0916 118.834 69.0916H116.607V72.4855H120.001V70.2582Z" fill="black"/>
<path d="M14.7875 72.4839H11.3935V75.8778H14.7875V72.4839Z" fill="black"/>
<path d="M18.1821 72.4836H14.7881V75.8776H18.1821V72.4836Z" fill="black"/>
<path d="M24.9632 73.5703H24.9698V72.4832H21.5759V73.5703H21.5825C21.5781 73.6056 21.5759 73.6321 21.5759 73.6498V74.7104C21.5759 75.033 21.6897 75.3081 21.9173 75.5357C22.1449 75.7633 22.4199 75.8771 22.7425 75.8771H23.8031C24.1257 75.8771 24.4008 75.7633 24.6284 75.5357C24.856 75.3081 24.9698 75.033 24.9698 74.7104V73.6498C24.9698 73.6321 24.9677 73.6056 24.9632 73.5703Z" fill="black"/>
<path d="M35.1516 73.6496C35.1516 73.327 35.0378 73.0519 34.8102 72.8243C34.5826 72.5967 34.3075 72.4829 33.9849 72.4829H32.9243C32.6017 72.4829 32.3266 72.5967 32.099 72.8243C31.8715 73.0519 31.7577 73.327 31.7577 73.6496V74.7102C31.7577 74.7279 31.7599 74.7544 31.7643 74.7897H31.7577V75.8768H35.1516V74.7897H35.145C35.1494 74.7544 35.1516 74.7279 35.1516 74.7102V73.6496Z" fill="black"/>
<path d="M41.9386 73.6506C41.9386 73.328 41.8247 73.0528 41.5972 72.8253C41.3696 72.5977 41.0945 72.4839 40.7719 72.4839H39.7113C39.3887 72.4839 39.1136 72.5977 38.886 72.8253C38.6584 73.0529 38.5446 73.328 38.5446 73.6506V74.7112C38.5446 74.7288 38.5468 74.7554 38.5512 74.7907H38.5446V75.8778H41.9386V74.7907H41.9319C41.9364 74.7554 41.9386 74.7289 41.9386 74.7112V73.6506Z" fill="black"/>
<path d="M86.0596 73.6498V72.4832H83.8324C83.5098 72.4832 83.2347 72.597 83.0071 72.8246C82.7795 73.0521 82.6657 73.3272 82.6657 73.6498V75.8771H86.0596V73.6498Z" fill="black"/>
<path d="M89.4546 72.4839H86.0607V75.8778H89.4546V72.4839Z" fill="black"/>
<path d="M91.6791 72.4839H89.4518V75.8778H91.6791C92.0017 75.8778 92.2768 75.764 92.5044 75.5364C92.7319 75.3089 92.8458 75.0338 92.8458 74.7112V73.6506C92.8458 73.328 92.7319 73.0528 92.5044 72.8253C92.2768 72.5977 92.0017 72.4839 91.6791 72.4839Z" fill="black"/>
<path d="M99.6352 72.4836H96.2413V75.8776H99.6352V72.4836Z" fill="black"/>
<path d="M109.819 73.6503V72.4836H107.591C107.269 72.4836 106.994 72.5974 106.766 72.825C106.538 73.0526 106.425 73.3277 106.425 73.6503V75.8776H109.819V73.6503Z" fill="black"/>
<path d="M113.213 72.4834H109.819V75.8773H112.046C112.369 75.8773 112.644 75.7635 112.872 75.5359C113.099 75.3084 113.213 75.0333 113.213 74.7107V72.4834Z" fill="black"/>
<path d="M120 72.4834H116.606V75.8773H120V72.4834Z" fill="black"/>
<path d="M14.7873 75.8777H11.3933V78.105C11.3933 78.4275 11.5071 78.7027 11.7347 78.9302C11.9623 79.1578 12.2374 79.2716 12.56 79.2716H14.7873V75.8777Z" fill="black"/>
<path d="M18.1821 75.8772H14.7881V79.2711H18.1821V75.8772Z" fill="black"/>
<path d="M31.756 77.0444V75.8777H29.5287C29.2061 75.8777 28.931 75.9915 28.7035 76.2191C28.4759 76.4467 28.3621 76.7218 28.3621 77.0444V78.105C28.3621 78.4275 28.4759 78.7027 28.7035 78.9302C28.9311 79.1578 29.2061 79.2716 29.5287 79.2716H31.756V77.0444Z" fill="black"/>
<path d="M35.1519 75.8777H31.7579V79.2716H35.1519V75.8777Z" fill="black"/>
<path d="M38.5453 75.8777H35.1513V79.2716H38.5453V75.8777Z" fill="black"/>
<path d="M41.9386 75.8777H38.5446V79.2716H40.7719C41.0945 79.2716 41.3696 79.1578 41.5972 78.9302C41.8247 78.7027 41.9386 78.4275 41.9386 78.105V75.8777Z" fill="black"/>
<path d="M86.053 76.9648H86.0596V75.8777H82.6657V76.9648H82.6723C82.6679 77.0002 82.6657 77.0267 82.6657 77.0444V78.105C82.6657 78.4275 82.7795 78.7027 83.0071 78.9302C83.2347 79.1578 83.5098 79.2716 83.8324 79.2716H84.893C85.2156 79.2716 85.4907 79.1578 85.7183 78.9302C85.9458 78.7027 86.0596 78.4275 86.0596 78.105V77.0444C86.0596 77.0267 86.0575 77.0002 86.053 76.9648Z" fill="black"/>
<path d="M96.2404 77.0444V75.8777H94.0131C93.6905 75.8777 93.4154 75.9915 93.1879 76.2191C92.9603 76.4467 92.8465 76.7218 92.8465 77.0444V78.105C92.8465 78.4275 92.9603 78.7027 93.1879 78.9302C93.4155 79.1578 93.6905 79.2716 94.0131 79.2716H96.2404V77.0444Z" fill="black"/>
<path d="M99.6352 75.8772H96.2413V79.2711H99.6352V75.8772Z" fill="black"/>
<path d="M103.033 75.8772H99.6388V79.2711H103.033V75.8772Z" fill="black"/>
<path d="M106.423 75.8772H103.029V79.2711H106.423V75.8772Z" fill="black"/>
<path d="M109.819 75.8772H106.425V79.2711H109.819V75.8772Z" fill="black"/>
<path d="M116.606 77.0439V75.8772H114.378C114.056 75.8772 113.781 75.991 113.553 76.2186C113.326 76.4462 113.212 76.7213 113.212 77.0439V78.1045C113.212 78.4271 113.326 78.7022 113.553 78.9297C113.781 79.1573 114.056 79.2711 114.378 79.2711H116.606V77.0439Z" fill="black"/>
<path d="M120 75.8772H116.606V79.2711H120V75.8772Z" fill="black"/>
<path d="M11.3926 80.4386C11.3926 80.116 11.2788 79.8409 11.0513 79.6134C10.8237 79.3858 10.5486 79.272 10.226 79.272H9.16538C8.84278 79.272 8.56767 79.3858 8.34011 79.6134C8.11254 79.841 7.99871 80.116 7.99871 80.4386V81.4992C7.99871 81.5169 8.00092 81.5435 8.00533 81.5788H7.99871V82.6659H11.3926V81.5788H11.386C11.3905 81.5435 11.3926 81.517 11.3926 81.4992V80.4386Z" fill="black"/>
<path d="M18.1818 79.2717H14.7879V81.499C14.7879 81.8216 14.9017 82.0967 15.1293 82.3243C15.3569 82.5518 15.6319 82.6657 15.9545 82.6657H18.1818V79.2717Z" fill="black"/>
<path d="M21.5755 79.272H18.1816V82.6659H21.5755V79.272Z" fill="black"/>
<path d="M24.9702 79.272H21.5763V82.6659H24.9702V79.272Z" fill="black"/>
<path d="M28.3614 80.4389C28.3614 80.1163 28.2476 79.8412 28.02 79.6136C27.7924 79.386 27.5173 79.2722 27.1947 79.2722H24.9675V82.6662H28.3614V80.4389Z" fill="black"/>
<path d="M92.8458 81.4995C92.8458 81.8221 92.7319 82.0972 92.5044 82.3248C92.2768 82.5523 92.0018 82.6662 91.6791 82.6662H90.6185C90.2959 82.6662 90.0208 82.5523 89.7933 82.3248C89.5657 82.0972 89.4518 81.8221 89.4518 81.4995V80.4389C89.4518 80.1163 89.5656 79.8412 89.7932 79.6136C90.0209 79.386 90.2959 79.2722 90.6185 79.2722H91.6791C92.0018 79.2722 92.2769 79.386 92.5044 79.6136C92.7319 79.8412 92.8458 80.1163 92.8458 80.4389V81.4995Z" fill="black"/>
<path d="M103.026 80.3593H103.032V79.2722H99.6384V80.3593H99.645C99.6406 80.3947 99.6384 80.4212 99.6384 80.4389V81.4995C99.6384 81.8221 99.7522 82.0972 99.9798 82.3248C100.207 82.5523 100.482 82.6662 100.805 82.6662H101.866C102.188 82.6662 102.463 82.5523 102.691 82.3248C102.918 82.0972 103.032 81.8221 103.032 81.4995V80.4389C103.032 80.4212 103.03 80.3947 103.026 80.3593Z" fill="black"/>
<path d="M109.819 79.2717H106.425V82.6657H109.819V79.2717Z" fill="black"/>
<path d="M112.046 79.272H109.819V82.6659H112.046C112.369 82.6659 112.644 82.5521 112.872 82.3245C113.099 82.0969 113.213 81.8218 113.213 81.4992V80.4386C113.213 80.116 113.099 79.8409 112.872 79.6134C112.644 79.3858 112.369 79.272 112.046 79.272Z" fill="black"/>
<path d="M119.994 80.3588H120V79.2717H116.606V80.3588H116.613C116.609 80.3942 116.606 80.4207 116.606 80.4384V81.499C116.606 81.8216 116.72 82.0967 116.948 82.3243C117.175 82.5518 117.45 82.6657 117.773 82.6657H118.834C119.156 82.6657 119.431 82.5518 119.659 82.3243C119.886 82.0967 120 81.8216 120 81.499V80.4384C120 80.4207 119.998 80.3942 119.994 80.3588Z" fill="black"/>
<path d="M11.3929 82.666H7.99899V86.06H11.3929V82.666Z" fill="black"/>
<path d="M24.9698 82.6663H21.5759V84.8935C21.5759 85.2161 21.6897 85.4912 21.9173 85.7188C22.1449 85.9464 22.4199 86.0602 22.7425 86.0602H24.9698V82.6663Z" fill="black"/>
<path d="M28.3617 82.666H24.9677V86.06H28.3617V82.666Z" fill="black"/>
<path d="M31.7562 82.666H28.3623V86.06H31.7562V82.666Z" fill="black"/>
<path d="M35.1519 82.666H31.7579V86.06H35.1519V82.666Z" fill="black"/>
<path d="M38.5453 82.666H35.1513V86.06H38.5453V82.666Z" fill="black"/>
<path d="M41.9398 82.666H38.5459V86.06H41.9398V82.666Z" fill="black"/>
<path d="M44.1645 82.6663H41.9372V86.0602H44.1645C44.4871 86.0602 44.7622 85.9464 44.9897 85.7188C45.2173 85.4912 45.3311 85.2161 45.3311 84.8935V83.8329C45.3311 83.5103 45.2173 83.2352 44.9897 83.0077C44.7622 82.7801 44.4871 82.6663 44.1645 82.6663Z" fill="black"/>
<path d="M52.1193 84.893C52.1193 85.2157 52.0054 85.4907 51.7779 85.7183C51.5503 85.9458 51.2753 86.0597 50.9526 86.0597H49.892C49.5695 86.0597 49.2944 85.9458 49.0668 85.7183C48.8392 85.4907 48.7254 85.2157 48.7254 84.893V83.8324C48.7254 83.5099 48.8392 83.2348 49.0668 83.0072C49.2944 82.7796 49.5695 82.6658 49.892 82.6658H50.9526C51.2753 82.6658 51.5504 82.7796 51.7779 83.0072C52.0055 83.2348 52.1193 83.5099 52.1193 83.8324V84.893Z" fill="black"/>
<path d="M65.6964 84.893C65.6964 85.2157 65.5825 85.4907 65.355 85.7183C65.1274 85.9458 64.8524 86.0597 64.5297 86.0597H63.4691C63.1466 86.0597 62.8714 85.9458 62.6439 85.7183C62.4163 85.4907 62.3024 85.2157 62.3024 84.893V83.8324C62.3024 83.5099 62.4162 83.2348 62.6438 83.0072C62.8715 82.7796 63.1466 82.6658 63.4691 82.6658H64.5297C64.8524 82.6658 65.1275 82.7796 65.355 83.0072C65.5825 83.2348 65.6964 83.5099 65.6964 83.8324V84.893Z" fill="black"/>
<path d="M79.2717 83.8327C79.2717 83.5101 79.1578 83.235 78.9303 83.0074C78.7027 82.7798 78.4276 82.666 78.105 82.666H77.0444C76.7218 82.666 76.4467 82.7798 76.2191 83.0074C75.9915 83.235 75.8777 83.5101 75.8777 83.8327V84.8933C75.8777 84.911 75.8799 84.9375 75.8843 84.9728H75.8777V86.06H79.2717V84.9728H79.265C79.2695 84.9375 79.2717 84.911 79.2717 84.8933V83.8327Z" fill="black"/>
<path d="M86.0596 83.8329C86.0596 83.5103 85.9458 83.2352 85.7183 83.0077C85.4907 82.7801 85.2156 82.6663 84.893 82.6663H83.8324C83.5098 82.6663 83.2347 82.7801 83.0071 83.0077C82.7795 83.2353 82.6657 83.5103 82.6657 83.8329V84.8935C82.6657 84.9112 82.6679 84.9378 82.6723 84.9731H82.6657V86.0602H86.0596V84.9731H86.053C86.0575 84.9378 86.0596 84.9112 86.0596 84.8935V83.8329Z" fill="black"/>
<path d="M106.424 83.8324V82.6658H104.197C103.874 82.6658 103.599 82.7796 103.371 83.0072C103.144 83.2348 103.03 83.5098 103.03 83.8324V84.893C103.03 85.2156 103.144 85.4907 103.371 85.7183C103.599 85.9459 103.874 86.0597 104.197 86.0597H106.424V83.8324Z" fill="black"/>
<path d="M109.819 82.6655H106.425V86.0595H109.819V82.6655Z" fill="black"/>
<path d="M116.606 83.8324C116.606 83.5098 116.492 83.2347 116.264 83.0072C116.037 82.7796 115.762 82.6658 115.439 82.6658H114.378C114.056 82.6658 113.781 82.7796 113.553 83.0072C113.326 83.2348 113.212 83.5098 113.212 83.8324V84.893C113.212 84.9107 113.214 84.9373 113.218 84.9726H113.212V86.0597H116.606V84.9726H116.599C116.604 84.9373 116.606 84.9108 116.606 84.893V83.8324Z" fill="black"/>
<path d="M11.3929 86.0596H7.99899V89.4535H11.3929V86.0596Z" fill="black"/>
<path d="M28.3617 86.0596H24.9677V89.4535H28.3617V86.0596Z" fill="black"/>
<path d="M38.5453 86.0596H35.1513V89.4535H38.5453V86.0596Z" fill="black"/>
<path d="M41.9395 86.0598H38.5456V89.4537H40.7729C41.0955 89.4537 41.3706 89.3399 41.5981 89.1124C41.8257 88.8848 41.9395 88.6097 41.9395 88.2871V86.0598Z" fill="black"/>
<path d="M58.9083 88.2868C58.9083 88.6095 58.7944 88.8845 58.5669 89.1121C58.3393 89.3396 58.0643 89.4535 57.7416 89.4535H56.681C56.3584 89.4535 56.0833 89.3396 55.8558 89.1121C55.6282 88.8845 55.5143 88.6095 55.5143 88.2868V87.2262C55.5143 86.9037 55.6281 86.6286 55.8557 86.401C56.0834 86.1734 56.3584 86.0596 56.681 86.0596H57.7416C58.0643 86.0596 58.3394 86.1734 58.5669 86.401C58.7944 86.6286 58.9083 86.9037 58.9083 87.2262V88.2868Z" fill="black"/>
<path d="M69.0901 87.2262C69.0901 86.9036 68.9763 86.6285 68.7487 86.401C68.5212 86.1734 68.2461 86.0596 67.9235 86.0596H66.8629C66.5403 86.0596 66.2652 86.1734 66.0376 86.401C65.81 86.6286 65.6962 86.9036 65.6962 87.2262V88.2868C65.6962 88.3045 65.6984 88.3311 65.7028 88.3664H65.6962V89.4535H69.0901V88.3664H69.0835C69.088 88.3311 69.0901 88.3046 69.0901 88.2868V87.2262Z" fill="black"/>
<path d="M75.877 87.2265V86.0598H73.6498C73.3272 86.0598 73.0521 86.1736 72.8245 86.4012C72.5969 86.6288 72.4831 86.9039 72.4831 87.2265V88.2871C72.4831 88.6097 72.5969 88.8848 72.8245 89.1124C73.0521 89.3399 73.3272 89.4537 73.6498 89.4537H75.877V87.2265Z" fill="black"/>
<path d="M79.2718 86.0596H75.8779V89.4535H79.2718V86.0596Z" fill="black"/>
<path d="M82.6665 86.0596H79.2725V89.4535H82.6665V86.0596Z" fill="black"/>
<path d="M86.0596 86.0598H82.6657V89.4537H84.893C85.2156 89.4537 85.4907 89.3399 85.7183 89.1124C85.9458 88.8848 86.0596 88.6097 86.0596 88.2871V86.0598Z" fill="black"/>
<path d="M92.8458 87.2262C92.8458 86.9036 92.7319 86.6285 92.5044 86.401C92.2768 86.1734 92.0017 86.0596 91.6791 86.0596H90.6185C90.2959 86.0596 90.0208 86.1734 89.7932 86.401C89.5657 86.6286 89.4518 86.9036 89.4518 87.2262V88.2868C89.4518 88.3045 89.454 88.3311 89.4585 88.3664H89.4518V89.4535H92.8458V88.3664H92.8392C92.8436 88.3311 92.8458 88.3046 92.8458 88.2868V87.2262Z" fill="black"/>
<path d="M109.819 86.0593H106.425V89.4533H109.819V86.0593Z" fill="black"/>
<path d="M113.212 86.0593H109.818V89.4533H113.212V86.0593Z" fill="black"/>
<path d="M116.606 86.0593H113.212V89.4533H116.606V86.0593Z" fill="black"/>
<path d="M11.386 90.5412H11.3926V89.4541H7.99871V90.5412H8.00533C8.00092 90.5766 7.99871 90.6031 7.99871 90.6208V91.6814C7.99871 92.004 8.11251 92.2791 8.34011 92.5066C8.5677 92.7342 8.84278 92.848 9.16538 92.848H10.226C10.5486 92.848 10.8237 92.7342 11.0513 92.5066C11.2788 92.2791 11.3926 92.004 11.3926 91.6814V90.6208C11.3926 90.6031 11.3905 90.5766 11.386 90.5412Z" fill="black"/>
<path d="M18.1818 90.6208V89.4541H15.9545C15.6319 89.4541 15.3568 89.5679 15.1293 89.7955C14.9017 90.0231 14.7879 90.2982 14.7879 90.6208V91.6814C14.7879 92.004 14.9017 92.2791 15.1293 92.5066C15.3569 92.7342 15.6319 92.848 15.9545 92.848H18.1818V90.6208Z" fill="black"/>
<path d="M21.5755 89.4539H18.1816V92.8478H21.5755V89.4539Z" fill="black"/>
<path d="M24.9702 89.4539H21.5763V92.8478H24.9702V89.4539Z" fill="black"/>
<path d="M28.3617 89.4539H24.9677V92.8478H28.3617V89.4539Z" fill="black"/>
<path d="M31.7562 89.4539H28.3623V92.8478H31.7562V89.4539Z" fill="black"/>
<path d="M35.1519 89.4539H31.7579V92.8478H35.1519V89.4539Z" fill="black"/>
<path d="M38.5453 89.4539H35.1513V92.8478H38.5453V89.4539Z" fill="black"/>
<path d="M52.1193 90.6208V89.4541H49.892C49.5694 89.4541 49.2943 89.5679 49.0668 89.7955C48.8392 90.0231 48.7254 90.2982 48.7254 90.6208V92.848H52.1193V90.6208Z" fill="black"/>
<path d="M54.3461 89.4541H52.1188V92.848H54.3461C54.6687 92.848 54.9438 92.7342 55.1714 92.5066C55.3989 92.2791 55.5128 92.004 55.5128 91.6814V90.6208C55.5128 90.2982 55.3989 90.0231 55.1714 89.7955C54.9438 89.5679 54.6687 89.4541 54.3461 89.4541Z" fill="black"/>
<path d="M62.3017 90.6205V89.4539H60.0744C59.7518 89.4539 59.4767 89.5677 59.2491 89.7953C59.0215 90.0229 58.9077 90.2979 58.9077 90.6205V91.6811C58.9077 92.0037 59.0215 92.2788 59.2491 92.5064C59.4767 92.734 59.7518 92.8478 60.0744 92.8478H62.3017V90.6205Z" fill="black"/>
<path d="M65.6967 89.4539H62.3027V92.8478H65.6967V89.4539Z" fill="black"/>
<path d="M69.0901 89.4541H65.6962V92.848H67.9235C68.2461 92.848 68.5212 92.7342 68.7487 92.5066C68.9763 92.2791 69.0901 92.004 69.0901 91.6814V89.4541Z" fill="black"/>
<path d="M79.2717 89.4539H75.8777V91.6811C75.8777 92.0037 75.9915 92.2788 76.2191 92.5064C76.4467 92.734 76.7218 92.8478 77.0444 92.8478H79.2717V89.4539Z" fill="black"/>
<path d="M82.6662 89.4541H79.2722V92.848H81.4995C81.8221 92.848 82.0972 92.7342 82.3248 92.5066C82.5523 92.2791 82.6662 92.004 82.6662 91.6814V89.4541Z" fill="black"/>
<path d="M92.8461 89.4539H89.4521V92.8478H92.8461V89.4539Z" fill="black"/>
<path d="M96.2406 89.4539H92.8466V92.8478H96.2406V89.4539Z" fill="black"/>
<path d="M99.6352 89.4539H96.2413V92.8478H99.6352V89.4539Z" fill="black"/>
<path d="M103.033 89.4539H99.6388V92.8478H103.033V89.4539Z" fill="black"/>
<path d="M106.424 89.4539H103.03V92.8478H106.424V89.4539Z" fill="black"/>
<path d="M109.819 89.4539H106.425V92.8478H109.819V89.4539Z" fill="black"/>
<path d="M116.606 89.4539H113.212V92.8478H116.606V89.4539Z" fill="black"/>
<path d="M120 90.6205C120 90.2979 119.886 90.0228 119.659 89.7953C119.431 89.5677 119.156 89.4539 118.834 89.4539H116.606V92.8478H120V90.6205Z" fill="black"/>
<path d="M38.545 92.8494H35.1511V95.0766C35.1511 95.3992 35.2649 95.6743 35.4925 95.9019C35.7201 96.1295 35.9951 96.2433 36.3177 96.2433H38.545V92.8494Z" fill="black"/>
<path d="M41.9398 92.8484H38.5459V96.2423H41.9398V92.8484Z" fill="black"/>
<path d="M45.3323 92.8486H41.9384V96.2426H45.3323V92.8486Z" fill="black"/>
<path d="M48.7269 92.8486H45.3329V96.2426H48.7269V92.8486Z" fill="black"/>
<path d="M52.1206 92.8484H48.7267V96.2423H52.1206V92.8484Z" fill="black"/>
<path d="M65.6967 92.8484H62.3027V96.2423H65.6967V92.8484Z" fill="black"/>
<path d="M72.4847 94.0153C72.4847 93.6927 72.3708 93.4176 72.1433 93.19C71.9157 92.9625 71.6406 92.8486 71.318 92.8486H70.2574C69.9348 92.8486 69.6597 92.9624 69.4321 93.19C69.2046 93.4176 69.0907 93.6927 69.0907 94.0153V95.0759C69.0907 95.0936 69.0929 95.1201 69.0973 95.1555H69.0907V96.2426H72.4847V95.1555H72.478C72.4825 95.1201 72.4847 95.0936 72.4847 95.0759V94.0153Z" fill="black"/>
<path d="M92.8461 92.8486H89.4521V96.2426H92.8461V92.8486Z" fill="black"/>
<path d="M106.423 92.8486H103.029V96.2426H106.423V92.8486Z" fill="black"/>
<path d="M109.819 92.8494H106.425V96.2433H108.652C108.974 96.2433 109.25 96.1295 109.477 95.9019C109.705 95.6743 109.819 95.3992 109.819 95.0766V92.8494Z" fill="black"/>
<path d="M116.606 92.8484H113.212V96.2423H116.606V92.8484Z" fill="black"/>
<path d="M120.001 92.8494H116.607V96.2433H118.834C119.157 96.2433 119.432 96.1295 119.66 95.9019C119.887 95.6743 120.001 95.3992 120.001 95.0766V92.8494Z" fill="black"/>
<path d="M48.7266 96.2434H45.3327V98.4707C45.3327 98.7933 45.4465 99.0684 45.6741 99.2959C45.9017 99.5235 46.1767 99.6373 46.4993 99.6373H48.7266V96.2434Z" fill="black"/>
<path d="M52.1206 96.2424H48.7267V99.6364H52.1206V96.2424Z" fill="black"/>
<path d="M55.5171 96.2422H52.1232V99.6361H55.5171V96.2422Z" fill="black"/>
<path d="M58.9095 96.2422H55.5156V99.6361H58.9095V96.2422Z" fill="black"/>
<path d="M62.3023 96.2422H58.9083V99.6361H62.3023V96.2422Z" fill="black"/>
<path d="M65.6967 96.2424H62.3027V99.6364H65.6967V96.2424Z" fill="black"/>
<path d="M72.4847 96.2429H69.0907V98.4702C69.0907 98.7928 69.2045 99.0679 69.4321 99.2955C69.6597 99.523 69.9348 99.6369 70.2574 99.6369H72.4847V96.2429Z" fill="black"/>
<path d="M75.877 97.4101C75.877 97.0875 75.7632 96.8124 75.5356 96.5848C75.3081 96.3572 75.033 96.2434 74.7104 96.2434H72.4831V99.6373H75.877V97.4101Z" fill="black"/>
<path d="M86.0596 97.4101V96.2434H83.8324C83.5098 96.2434 83.2347 96.3572 83.0071 96.5848C82.7795 96.8124 82.6657 97.0875 82.6657 97.4101V98.4707C82.6657 98.7933 82.7795 99.0684 83.0071 99.2959C83.2347 99.5235 83.5098 99.6373 83.8324 99.6373H86.0596V97.4101Z" fill="black"/>
<path d="M89.4546 96.2422H86.0607V99.6361H89.4546V96.2422Z" fill="black"/>
<path d="M92.8461 96.2422H89.4521V99.6361H92.8461V96.2422Z" fill="black"/>
<path d="M99.6349 98.4707C99.6349 98.7933 99.5211 99.0684 99.2935 99.2959C99.066 99.5235 98.7909 99.6373 98.4683 99.6373H97.4076C97.0851 99.6373 96.81 99.5235 96.5824 99.2959C96.3548 99.0684 96.241 98.7933 96.241 98.4707V97.4101C96.241 97.0875 96.3548 96.8124 96.5824 96.5848C96.81 96.3572 97.0851 96.2434 97.4076 96.2434H98.4683C98.7909 96.2434 99.066 96.3572 99.2935 96.5848C99.5211 96.8124 99.6349 97.0875 99.6349 97.4101V98.4707Z" fill="black"/>
<path d="M106.423 96.2422H103.029V99.6361H106.423V96.2422Z" fill="black"/>
<path d="M116.606 96.2424H113.212V99.6364H116.606V96.2424Z" fill="black"/>
<path d="M41.9386 100.802V99.6355H39.7113C39.3887 99.6355 39.1136 99.7493 38.886 99.9769C38.6584 100.204 38.5446 100.48 38.5446 100.802V103.029H41.9386V100.802Z" fill="black"/>
<path d="M45.3311 100.802C45.3311 100.479 45.2173 100.204 44.9897 99.9766C44.7622 99.7491 44.4871 99.6353 44.1645 99.6353H41.9372V103.029H45.3311V100.802Z" fill="black"/>
<path d="M55.5171 99.6355H52.1232V103.029H55.5171V99.6355Z" fill="black"/>
<path d="M65.6967 99.6353H62.3027V103.029H65.6967V99.6353Z" fill="black"/>
<path d="M75.8773 99.6355H72.4834V103.029H75.8773V99.6355Z" fill="black"/>
<path d="M79.2717 100.802C79.2717 100.479 79.1578 100.204 78.9303 99.9764C78.7027 99.7488 78.4276 99.635 78.105 99.635H75.8777V103.029H79.2717V100.802Z" fill="black"/>
<path d="M89.4542 99.6355H86.0602V101.863C86.0602 102.185 86.174 102.46 86.4016 102.688C86.6292 102.916 86.9043 103.029 87.2269 103.029H89.4542V99.6355Z" fill="black"/>
<path d="M92.8461 99.6355H89.4521V103.029H92.8461V99.6355Z" fill="black"/>
<path d="M106.423 99.6355H103.029V103.029H106.423V99.6355Z" fill="black"/>
<path d="M109.819 99.6353H106.425V103.029H109.819V99.6353Z" fill="black"/>
<path d="M113.212 99.6353H109.818V103.029H113.212V99.6353Z" fill="black"/>
<path d="M116.606 99.6353H113.212V103.029H116.606V99.6353Z" fill="black"/>
<path d="M120.001 100.802C120.001 100.48 119.887 100.204 119.66 99.9769C119.432 99.7493 119.157 99.6355 118.834 99.6355H116.607V103.029H120.001V100.802Z" fill="black"/>
<path d="M38.545 104.197V103.03H36.3177C35.9951 103.03 35.72 103.144 35.4925 103.371C35.2649 103.599 35.1511 103.874 35.1511 104.197V106.424H38.545V104.197Z" fill="black"/>
<path d="M41.9398 103.03H38.5459V106.424H41.9398V103.03Z" fill="black"/>
<path d="M45.3311 103.03H41.9372V106.424H44.1645C44.4871 106.424 44.7622 106.31 44.9897 106.083C45.2173 105.855 45.3311 105.58 45.3311 105.257V103.03Z" fill="black"/>
<path d="M52.1193 104.196V103.03H49.892C49.5694 103.03 49.2943 103.144 49.0668 103.371C48.8392 103.599 48.7254 103.874 48.7254 104.196V105.257C48.7254 105.58 48.8392 105.855 49.0668 106.082C49.2944 106.31 49.5694 106.424 49.892 106.424H52.1193V104.196Z" fill="black"/>
<path d="M55.514 103.03H52.1201V106.423H55.514V103.03Z" fill="black"/>
<path d="M57.7416 103.03H55.5143V106.424H57.7416C58.0642 106.424 58.3393 106.31 58.5669 106.083C58.7944 105.855 58.9083 105.58 58.9083 105.257V104.197C58.9083 103.874 58.7944 103.599 58.5669 103.371C58.3393 103.144 58.0642 103.03 57.7416 103.03Z" fill="black"/>
<path d="M65.6967 103.03H62.3027V106.423H65.6967V103.03Z" fill="black"/>
<path d="M75.8773 103.03H72.4834V106.424H75.8773V103.03Z" fill="black"/>
<path d="M79.2718 103.03H75.8779V106.424H79.2718V103.03Z" fill="black"/>
<path d="M82.6665 103.03H79.2725V106.424H82.6665V103.03Z" fill="black"/>
<path d="M84.893 103.03H82.6657V106.424H84.893C85.2156 106.424 85.4907 106.31 85.7183 106.083C85.9458 105.855 86.0596 105.58 86.0596 105.257V104.197C86.0596 103.874 85.9458 103.599 85.7183 103.371C85.4907 103.144 85.2156 103.03 84.893 103.03Z" fill="black"/>
<path d="M92.8458 103.03H89.4518V105.257C89.4518 105.58 89.5656 105.855 89.7932 106.083C90.0208 106.31 90.2959 106.424 90.6185 106.424H92.8458V103.03Z" fill="black"/>
<path d="M96.2406 103.03H92.8466V106.424H96.2406V103.03Z" fill="black"/>
<path d="M99.6352 103.03H96.2413V106.424H99.6352V103.03Z" fill="black"/>
<path d="M103.033 103.03H99.6388V106.423H103.033V103.03Z" fill="black"/>
<path d="M106.424 103.03H103.03V106.423H106.424V103.03Z" fill="black"/>
<path d="M109.819 103.03H106.425V106.423H109.819V103.03Z" fill="black"/>
<path d="M116.606 103.03H113.212V106.423H116.606V103.03Z" fill="black"/>
<path d="M120 103.03H116.606V106.423H118.834C119.156 106.423 119.431 106.31 119.659 106.082C119.886 105.855 120 105.579 120 105.257V103.03Z" fill="black"/>
<path d="M38.5453 106.424H35.1513V109.818H38.5453V106.424Z" fill="black"/>
<path d="M65.6967 106.424H62.3027V109.818H65.6967V106.424Z" fill="black"/>
<path d="M69.0901 107.59C69.0901 107.268 68.9763 106.993 68.7487 106.765C68.5212 106.537 68.2461 106.424 67.9235 106.424H65.6962V109.818H69.0901V107.59Z" fill="black"/>
<path d="M75.877 106.424H72.4831V108.651C72.4831 108.974 72.5969 109.249 72.8245 109.477C73.0521 109.704 73.3272 109.818 73.6498 109.818H75.877V106.424Z" fill="black"/>
<path d="M79.2717 106.424H75.8777V109.818H78.105C78.4276 109.818 78.7027 109.704 78.9303 109.476C79.1578 109.249 79.2717 108.974 79.2717 108.651V106.424Z" fill="black"/>
<path d="M89.4542 108.651C89.4542 108.974 89.3403 109.249 89.1128 109.477C88.8852 109.704 88.6102 109.818 88.2875 109.818H87.2269C86.9043 109.818 86.6292 109.704 86.4017 109.477C86.1741 109.249 86.0602 108.974 86.0602 108.651V107.591C86.0602 107.268 86.174 106.993 86.4016 106.766C86.6293 106.538 86.9043 106.424 87.2269 106.424H88.2875C88.6102 106.424 88.8853 106.538 89.1128 106.765C89.3403 106.993 89.4542 107.268 89.4542 107.591V108.651Z" fill="black"/>
<path d="M96.2406 106.424H92.8466V109.818H96.2406V106.424Z" fill="black"/>
<path d="M106.424 106.424H103.03V108.651C103.03 108.974 103.144 109.249 103.371 109.477C103.599 109.704 103.874 109.818 104.197 109.818H106.424V106.424Z" fill="black"/>
<path d="M109.819 106.424H106.425V109.818H108.652C108.974 109.818 109.25 109.704 109.477 109.476C109.705 109.249 109.819 108.974 109.819 108.651V106.424Z" fill="black"/>
<path d="M116.599 107.511H116.606V106.424H113.212V107.511H113.218C113.214 107.546 113.212 107.573 113.212 107.59V108.651C113.212 108.973 113.326 109.249 113.553 109.476C113.781 109.704 114.056 109.818 114.378 109.818H115.439C115.762 109.818 116.037 109.704 116.264 109.476C116.492 109.249 116.606 108.973 116.606 108.651V107.59C116.606 107.573 116.604 107.546 116.599 107.511Z" fill="black"/>
<path d="M38.545 109.818H35.1511V112.045C35.1511 112.367 35.2649 112.643 35.4925 112.87C35.7201 113.098 35.9951 113.212 36.3177 113.212H38.545V109.818Z" fill="black"/>
<path d="M40.7729 109.818H38.5456V113.212H40.7729C41.0955 113.212 41.3706 113.098 41.5981 112.87C41.8257 112.643 41.9395 112.367 41.9395 112.045V110.984C41.9395 110.662 41.8257 110.387 41.5981 110.159C41.3706 109.931 41.0955 109.818 40.7729 109.818Z" fill="black"/>
<path d="M58.9083 110.984C58.9083 110.662 58.7944 110.387 58.5669 110.159C58.3393 109.931 58.0642 109.818 57.7416 109.818H56.681C56.3584 109.818 56.0833 109.931 55.8557 110.159C55.6282 110.387 55.5143 110.662 55.5143 110.984V112.045C55.5143 112.063 55.5165 112.089 55.521 112.124H55.5143V113.212H58.9083V112.124H58.9017C58.9061 112.089 58.9083 112.063 58.9083 112.045V110.984Z" fill="black"/>
<path d="M65.6964 109.817H62.3024V112.045C62.3024 112.367 62.4162 112.642 62.6438 112.87C62.8714 113.097 63.1465 113.211 63.4691 113.211H65.6964V109.817Z" fill="black"/>
<path d="M69.0901 109.817H65.6962V113.211H67.9235C68.2461 113.211 68.5212 113.097 68.7487 112.87C68.9763 112.642 69.0901 112.367 69.0901 112.045V109.817Z" fill="black"/>
<path d="M82.6662 110.984V109.818H80.4389C80.1163 109.818 79.8412 109.931 79.6136 110.159C79.3861 110.387 79.2722 110.662 79.2722 110.984V113.212H82.6662V110.984Z" fill="black"/>
<path d="M84.893 109.818H82.6657V113.212H84.893C85.2156 113.212 85.4907 113.098 85.7183 112.87C85.9458 112.643 86.0596 112.367 86.0596 112.045V110.984C86.0596 110.662 85.9458 110.387 85.7183 110.159C85.4907 109.931 85.2156 109.818 84.893 109.818Z" fill="black"/>
<path d="M92.8458 110.984V109.818H90.6185C90.2959 109.818 90.0208 109.931 89.7932 110.159C89.5657 110.387 89.4518 110.662 89.4518 110.984V112.045C89.4518 112.367 89.5656 112.643 89.7932 112.87C90.0208 113.098 90.2959 113.212 90.6185 113.212H92.8458V110.984Z" fill="black"/>
<path d="M96.2406 109.817H92.8466V113.211H96.2406V109.817Z" fill="black"/>
<path d="M98.4683 109.818H96.241V113.212H98.4683C98.7908 113.212 99.066 113.098 99.2935 112.87C99.5211 112.643 99.6349 112.367 99.6349 112.045V110.984C99.6349 110.662 99.5211 110.387 99.2935 110.159C99.066 109.931 98.7908 109.818 98.4683 109.818Z" fill="black"/>
<path d="M55.5128 114.378V113.211H53.2855C52.9629 113.211 52.6878 113.325 52.4602 113.553C52.2327 113.78 52.1188 114.055 52.1188 114.378V115.439C52.1188 115.761 52.2326 116.036 52.4602 116.264C52.6878 116.492 52.9629 116.605 53.2855 116.605H55.5128V114.378Z" fill="black"/>
<path d="M58.9083 113.211H55.5143V116.605H57.7416C58.0642 116.605 58.3393 116.491 58.5669 116.264C58.7944 116.036 58.9083 115.761 58.9083 115.438V113.211Z" fill="black"/>
<path d="M82.6665 113.211H79.2725V116.605H82.6665V113.211Z" fill="black"/>
<path d="M96.2406 113.211H92.8466V116.605H96.2406V113.211Z" fill="black"/>
<path d="M103.032 115.438C103.032 115.761 102.918 116.036 102.691 116.264C102.463 116.491 102.188 116.605 101.866 116.605H100.805C100.482 116.605 100.207 116.491 99.9798 116.264C99.7522 116.036 99.6384 115.761 99.6384 115.438V114.378C99.6384 114.055 99.7522 113.78 99.9798 113.553C100.207 113.325 100.482 113.211 100.805 113.211H101.866C102.188 113.211 102.463 113.325 102.691 113.553C102.918 113.78 103.032 114.055 103.032 114.378V115.438Z" fill="black"/>
<path d="M109.819 115.438C109.819 115.761 109.705 116.036 109.477 116.263C109.25 116.491 108.975 116.605 108.652 116.605H107.591C107.269 116.605 106.994 116.491 106.766 116.263C106.538 116.036 106.425 115.761 106.425 115.438V114.378C106.425 114.055 106.538 113.78 106.766 113.552C106.994 113.325 107.269 113.211 107.591 113.211H108.652C108.975 113.211 109.25 113.325 109.477 113.552C109.705 113.78 109.819 114.055 109.819 114.378V115.438Z" fill="black"/>
<path d="M45.3311 118.833C45.3311 119.155 45.2173 119.43 44.9897 119.658C44.7622 119.886 44.4871 119.999 44.1645 119.999H43.1039C42.7813 119.999 42.5062 119.886 42.2786 119.658C42.051 119.43 41.9372 119.155 41.9372 118.833V117.772C41.9372 117.45 42.051 117.174 42.2786 116.947C42.5062 116.719 42.7813 116.605 43.1039 116.605H44.1645C44.4872 116.605 44.7622 116.719 44.9897 116.947C45.2173 117.174 45.3311 117.45 45.3311 117.772V118.833Z" fill="black"/>
<path d="M52.1193 118.833C52.1193 119.156 52.0054 119.431 51.7779 119.658C51.5503 119.886 51.2753 120 50.9526 120H49.892C49.5695 120 49.2944 119.886 49.0668 119.658C48.8392 119.431 48.7254 119.156 48.7254 118.833V117.773C48.7254 117.45 48.8392 117.175 49.0668 116.947C49.2944 116.72 49.5695 116.606 49.892 116.606H50.9526C51.2753 116.606 51.5504 116.72 51.7779 116.947C52.0055 117.175 52.1193 117.45 52.1193 117.773V118.833Z" fill="black"/>
<path d="M62.3017 118.832C62.3017 119.155 62.1878 119.43 61.9603 119.658C61.7327 119.885 61.4576 119.999 61.135 119.999H60.0744C59.7518 119.999 59.4767 119.885 59.2491 119.658C59.0215 119.43 58.9077 119.155 58.9077 118.832V117.772C58.9077 117.449 59.0215 117.174 59.2491 116.947C59.4767 116.719 59.7518 116.605 60.0744 116.605H61.135C61.4577 116.605 61.7328 116.719 61.9603 116.947C62.1878 117.174 62.3017 117.449 62.3017 117.772V118.832Z" fill="black"/>
<path d="M69.0901 117.772V116.606H66.8629C66.5403 116.606 66.2652 116.72 66.0376 116.947C65.81 117.175 65.6962 117.45 65.6962 117.772V118.833C65.6962 119.156 65.81 119.431 66.0376 119.658C66.2652 119.886 66.5403 120 66.8629 120H69.0901V117.772Z" fill="black"/>
<path d="M72.4847 116.605H69.0907V119.999H72.4847V116.605Z" fill="black"/>
<path d="M75.8773 116.605H72.4834V119.999H75.8773V116.605Z" fill="black"/>
<path d="M79.2718 116.605H75.8779V119.999H79.2718V116.605Z" fill="black"/>
<path d="M82.6662 116.606H79.2722V120H81.4995C81.8221 120 82.0972 119.886 82.3248 119.658C82.5523 119.431 82.6662 119.156 82.6662 118.833V116.606Z" fill="black"/>
<path d="M89.4542 117.772V116.606H87.2269C86.9043 116.606 86.6292 116.72 86.4016 116.947C86.1741 117.175 86.0602 117.45 86.0602 117.772V118.833C86.0602 119.156 86.174 119.431 86.4016 119.658C86.6292 119.886 86.9043 120 87.2269 120H89.4542V117.772Z" fill="black"/>
<path d="M92.8461 116.605H89.4521V119.999H92.8461V116.605Z" fill="black"/>
<path d="M96.2404 116.605H92.8465V119.999H95.0737C95.3963 119.999 95.6714 119.885 95.899 119.658C96.1266 119.43 96.2404 119.155 96.2404 118.832V116.605Z" fill="black"/>
<path d="M113.213 117.773V116.606H110.986C110.663 116.606 110.388 116.72 110.161 116.947C109.933 117.175 109.819 117.45 109.819 117.773V118.833C109.819 119.156 109.933 119.431 110.161 119.658C110.388 119.886 110.663 120 110.986 120H113.213V117.773Z" fill="black"/>
<path d="M115.439 116.606H113.212V120H115.439C115.762 120 116.037 119.886 116.264 119.658C116.492 119.431 116.606 119.156 116.606 118.833V117.772C116.606 117.45 116.492 117.175 116.264 116.947C116.037 116.72 115.762 116.606 115.439 116.606Z" fill="black"/>
<path d="M7.99993 23.732V16.0177C7.99993 11.5966 11.6396 7.99951 16.111 7.99951H23.6467C28.1178 7.99951 31.7575 11.5966 31.7575 16.0177V31.7571L16.111 31.7523C11.6396 31.7523 7.99993 28.1554 7.99993 23.732ZM11.5636 23.732C11.5636 26.1895 13.6034 28.1889 16.1119 28.1889L28.1938 28.1925V16.0177C28.1938 13.5614 26.154 11.5631 23.6467 11.5631H16.111C13.6034 11.5631 11.5636 13.5614 11.5636 16.0177V23.732Z" fill="black"/>
<path d="M119.999 23.7318V16.0174C119.999 11.5964 116.359 7.99927 111.887 7.99927H104.352C99.8806 7.99927 96.241 11.5964 96.241 16.0174V31.7568L111.887 31.7521C116.359 31.7521 119.999 28.1552 119.999 23.7318ZM116.435 23.7318C116.435 26.1892 114.395 28.1887 111.887 28.1887L99.8046 28.1922V16.0174C99.8046 13.5611 101.844 11.5629 104.352 11.5629H111.887C114.395 11.5629 116.435 13.5611 116.435 16.0174V23.7318Z" fill="black"/>
<path d="M7.99993 104.268V111.983C7.99993 116.404 11.6396 120.001 16.111 120.001H23.6467C28.1178 120.001 31.7575 116.404 31.7575 111.983V96.2432L16.111 96.2479C11.6396 96.2479 7.99993 99.8448 7.99993 104.268ZM11.5636 104.268C11.5636 101.811 13.6034 99.8113 16.1119 99.8113L28.1938 99.8078V111.983C28.1938 114.439 26.154 116.437 23.6467 116.437H16.111C13.6034 116.437 11.5636 114.439 11.5636 111.983V104.268Z" fill="black"/>
<path d="M17.5715 24.9701C16.035 24.9701 14.7852 23.7451 14.7852 22.2406V17.5164C14.7852 17.0465 14.9074 16.6042 15.1213 16.2171C15.3279 15.8447 15.6203 15.5246 15.9725 15.2831C16.4249 14.9717 16.9763 14.7883 17.5699 14.7883H22.185C23.7201 14.7883 24.9699 16.012 24.9699 17.5163V22.2405C24.9699 23.7449 23.7202 24.97 22.185 24.97H19.8775H17.5715V24.9701Z" fill="black"/>
<path d="M105.814 24.9704C104.277 24.9704 103.027 23.7453 103.027 22.2408V17.5167C103.027 17.0467 103.15 16.6044 103.364 16.2174C103.57 15.8449 103.863 15.5248 104.215 15.2833C104.667 14.9719 105.219 14.7886 105.812 14.7886H110.427C111.962 14.7886 113.212 16.0122 113.212 17.5166V22.2407C113.212 23.7451 111.962 24.9703 110.427 24.9703H108.12H105.814V24.9704Z" fill="black"/>
<path d="M17.5678 113.211C16.0313 113.211 14.7815 111.986 14.7815 110.482V105.758C14.7815 105.288 14.9037 104.845 15.1176 104.458C15.3242 104.086 15.6166 103.766 15.9688 103.524C16.4212 103.213 16.9726 103.03 17.5662 103.03H22.1813C23.7163 103.03 24.9662 104.253 24.9662 105.758V110.482C24.9662 111.986 23.7164 113.211 22.1813 113.211H19.8738H17.5678V113.211Z" fill="black"/>
<rect x="49.4833" y="49.4846" width="29.04" height="29.04" rx="6.39999" fill="url(#paint0_linear_1_348)"/>
<path d="M55.3222 57.7776H57.261V62.4237C57.261 63.684 58.0369 64.6888 59.3185 64.6888C60.6329 64.6888 61.4087 63.6867 61.4087 62.4237V57.7776H63.3475V62.4409C63.3475 64.9625 61.7633 66.5861 59.3185 66.5861C56.8905 66.5861 55.3222 64.9625 55.3222 62.4409V57.7776Z" fill="black"/>
<path d="M70.7366 70.2219H72.6756V65.5585C72.6756 63.037 71.1073 61.4143 68.6793 61.4143C66.2345 61.4143 64.6494 63.037 64.6494 65.5585V70.2219H66.5883V65.5757C66.5883 64.3127 67.364 63.3106 68.6793 63.3106C69.9609 63.3106 70.7366 64.3154 70.7366 65.5757V70.2219Z" fill="black"/>
<defs>
<linearGradient id="paint0_linear_1_348" x1="49.4833" y1="49.4849" x2="79.0531" y2="50.0348" gradientUnits="userSpaceOnUse">
<stop stop-color="#DBFF00"/>
<stop offset="1" stop-color="#ADFF00"/>
</linearGradient>
</defs>
</svg>
