<svg width="70" height="16" viewBox="0 0 70 16" fill="none" xmlns="http://www.w3.org/2000/svg">
<path d="M0.5 0.000732422H3.05012V5.96786C3.05012 7.58647 4.07039 8.87695 5.75613 8.87695C7.4849 8.87695 8.50517 7.58997 8.50517 5.96786V0.000732422H11.0553V5.98997C11.0553 9.22837 8.97169 11.3136 5.75613 11.3136C2.56266 11.3136 0.5 9.22837 0.5 5.98997V0.000732422Z" fill="#C8C9C7"/>
<path d="M64.6877 7.44801H69.1667V4.95899H64.6877V0.0100364H62.1364V12.9892C62.1364 14.8743 63.2684 15.9833 65.1751 15.9833H69.1667V13.4989H65.6847C65.0367 13.4989 64.6877 13.144 64.6877 12.5447V7.44801Z" fill="#C8C9C7"/>
<path d="M28.7711 0.0135307H26.2187V15.9868H28.7711V0.0135307Z" fill="#C8C9C7"/>
<path d="M48.9836 4.67157C50.4006 4.67157 51.6 5.12654 52.4504 5.98764C53.3009 6.84873 53.7511 8.06241 53.7511 9.49833V15.9798H51.2021V9.5181C51.219 8.89647 51.008 8.29014 50.6088 7.81339C50.4037 7.58704 50.1517 7.40806 49.8704 7.28891C49.5892 7.16975 49.2854 7.11325 48.9801 7.12335C48.6859 7.11404 48.3929 7.16428 48.1186 7.27107C47.8443 7.37785 47.5944 7.53896 47.3839 7.74472C46.9922 8.16693 46.7648 8.7156 46.7429 9.2912V15.9798H44.1835V9.29004C44.1551 8.71494 43.9258 8.16805 43.5355 7.74472C43.331 7.54032 43.087 7.37978 42.8183 7.27293C42.5497 7.1661 42.2621 7.11519 41.9731 7.12335C41.2937 7.12335 40.719 7.3619 40.313 7.81339C39.911 8.28886 39.6982 8.89569 39.715 9.5181V15.9798H37.1672V9.49833C37.1672 8.06241 37.6256 6.8464 38.4795 5.98647C39.3334 5.12654 40.5421 4.67157 41.9696 4.67157C42.6742 4.66292 43.3737 4.79218 44.0288 5.05207C44.5687 5.26947 45.0573 5.59724 45.4632 6.0144C45.8735 5.59677 46.3659 5.2687 46.9093 5.05092C47.5698 4.79187 48.2742 4.66305 48.9836 4.67157Z" fill="#C8C9C7"/>
<path d="M34.2378 16.0007V4.95899H31.6877V15.9833L34.2378 16.0007Z" fill="#C8C9C7"/>
<path d="M31.6889 3.38458H34.2378V0.0135307H31.6889V3.38458Z" fill="#C8C9C7"/>
<path d="M59.2317 15.9833H56.6816V4.95899H59.2317V15.9833Z" fill="#C8C9C7"/>
<path d="M59.2317 3.38458H56.6816V0.0135307H59.2317V3.38458Z" fill="#C8C9C7"/>
<path d="M20.7741 15.9833H23.3242V9.99404C23.3242 6.75565 21.2616 4.67157 18.0681 4.67157C14.8525 4.67157 12.7678 6.75565 12.7678 9.99404V15.9833H15.3179V10.0162C15.3179 8.39404 16.3382 7.10707 18.0681 7.10707C19.7538 7.10707 20.7741 8.39754 20.7741 10.0162V15.9833Z" fill="#C8C9C7"/>
</svg>
