<svg width="48" height="32" viewBox="0 0 48 32" fill="none" xmlns="http://www.w3.org/2000/svg">
<path d="M0 3.99927C0 1.79013 1.79086 -0.000732422 4 -0.000732422L44 -0.000732422C46.2091 -0.000732422 48 1.79013 48 3.99927L48 27.9993C48 30.2084 46.2091 31.9993 44 31.9993L4 31.9993C1.79086 31.9993 0 30.2084 0 27.9993L0 3.99927Z" fill="#ECA42C"/>
<rect y="6.99927" width="48" height="18" fill="white"/>
<path d="M0 8.49927L48 8.49927V23.4993L0 23.4993L0 8.49927Z" fill="#EC1B23"/>
<path fill-rule="evenodd" clip-rule="evenodd" d="M44 0.999268L4 0.999268C2.34315 0.999268 1 2.34241 1 3.99927L1 27.9993C1 29.6561 2.34315 30.9993 4 30.9993L44 30.9993C45.6569 30.9993 47 29.6561 47 27.9993L47 3.99927C47 2.34241 45.6569 0.999268 44 0.999268ZM4 -0.000732422C1.79086 -0.000732422 0 1.79013 0 3.99927L0 27.9993C0 30.2084 1.79086 31.9993 4 31.9993L44 31.9993C46.2091 31.9993 48 30.2084 48 27.9993L48 3.99927C48 1.79013 46.2091 -0.000732422 44 -0.000732422L4 -0.000732422Z" fill="black" fill-opacity="0.1"/>
<path fill-rule="evenodd" clip-rule="evenodd" d="M33.4838 20.9167C33.9309 21.4382 33.8733 22.2228 33.3548 22.6735C32.8312 23.1286 32.0372 23.0703 31.5857 22.5436L27.8002 18.1272L24.2221 22.5004C23.7748 23.0472 22.964 23.1161 22.4309 22.6526C21.9217 22.2099 21.8546 21.4435 22.2791 20.9191L26.1232 16.1706L23.4048 12.9993L25.2916 11.3591L27.7225 14.1951L29.9048 11.4993C31.4048 9.49927 33.9048 6.99927 34.4048 6.99927L37.9048 7.99927C35.3561 8.43797 34.2006 10.0314 32.9424 11.7665C32.7665 12.0089 32.5887 12.2541 32.4048 12.4993L29.4082 16.1618L33.4838 20.9167ZM13.05 9.32504C12.5316 9.77572 12.474 10.5603 12.921 11.0819L16.9966 15.8367L14 19.4993C12.5 21.4993 11 23.4993 8.5 23.9993L12 24.9993C12.5 24.9993 15 22.4993 16.5 20.4993L18.6824 17.8034L21.1132 20.6394L23 18.9993L20.2817 15.8279L24.1258 11.0794C24.5503 10.555 24.4832 9.78858 23.974 9.34594C23.4408 8.88248 22.6301 8.95134 22.1827 9.4981L18.6046 13.8714L14.8191 9.45494C14.3677 8.92821 13.5736 8.86991 13.05 9.32504ZM10.5 15.9993C10.5 18.2084 8.70914 19.9993 6.5 19.9993C4.29086 19.9993 2.5 18.2084 2.5 15.9993C2.5 13.7901 4.29086 11.9993 6.5 11.9993C8.70914 11.9993 10.5 13.7901 10.5 15.9993ZM13 15.9993C13 19.5891 10.0899 22.4993 6.5 22.4993C2.91015 22.4993 0 19.5891 0 15.9993C0 12.4094 2.91015 9.49926 6.5 9.49926C10.0899 9.49926 13 12.4094 13 15.9993ZM44 15.9993C44 18.2084 42.2091 19.9993 40 19.9993C37.7909 19.9993 36 18.2084 36 15.9993C36 13.7901 37.7909 11.9993 40 11.9993C42.2091 11.9993 44 13.7901 44 15.9993ZM46.5 15.9993C46.5 19.5891 43.5899 22.4993 40 22.4993C36.4101 22.4993 33.5 19.5891 33.5 15.9993C33.5 12.4094 36.4101 9.49926 40 9.49926C43.5899 9.49926 46.5 12.4094 46.5 15.9993Z" fill="white"/>
</svg>
