<svg width="48" height="32" viewBox="0 0 48 32" fill="none" xmlns="http://www.w3.org/2000/svg">
<path d="M0 3.99927C0 1.79013 1.79086 -0.000732422 4 -0.000732422L44 -0.000732422C46.2091 -0.000732422 48 1.79013 48 3.99927L48 27.9993C48 30.2084 46.2091 31.9993 44 31.9993L4 31.9993C1.79086 31.9993 0 30.2084 0 27.9993L0 3.99927Z" fill="#02797E"/>
<path d="M17.455 14.6077C17.455 13.773 16.8301 13.3557 15.6151 13.3557H15.1638V15.8944H15.5804C16.1705 15.8944 16.6566 15.7901 16.969 15.5814C17.2814 15.4076 17.455 15.0598 17.455 14.6077Z" fill="white"/>
<path fill-rule="evenodd" clip-rule="evenodd" d="M42 19.0232L36.2012 20.8462V11.3386H32.5561V20.8676H36.1331L14.1234 27.7871L6 5.63381L35.2652 3.99927L42 19.0232ZM20.9266 14.5729C20.9266 15.1293 20.7877 15.6162 20.5447 16.0683C20.3017 16.4857 19.9545 16.8682 19.5032 17.1464C19.0519 17.4247 18.4965 17.6333 17.8716 17.7724C17.2467 17.9115 16.5524 17.9811 15.754 17.9811H15.1985L15.1985 20.8329H11.5881L11.5881 11.3386L15.8234 11.3386C17.4203 11.3386 18.6701 11.6168 19.5727 12.1385C20.4753 12.6601 20.9266 13.4948 20.9266 14.5729ZM27.9741 21.0072C28.7031 21.0072 29.328 20.9376 29.8835 20.8333C30.2802 20.7588 30.429 20.7197 30.684 20.6528C30.786 20.6261 30.9051 20.5948 31.0638 20.5551V18.1554C30.647 18.3481 30.2302 18.4519 29.8408 18.5488L29.7446 18.5728C29.328 18.6771 28.8767 18.7119 28.4601 18.7119C28.0435 18.7119 27.6617 18.6423 27.2798 18.538C26.8979 18.4337 26.5855 18.2598 26.3078 18.0511C26.03 17.8424 25.8217 17.5642 25.6482 17.2512C25.4746 16.9034 25.4052 16.5209 25.4052 16.1036C25.4052 15.2341 25.6482 14.6081 26.1689 14.156C26.6896 13.7387 27.3492 13.4952 28.1824 13.4952C28.6684 13.4952 29.1544 13.5648 29.6057 13.7039C30.057 13.8082 30.4736 13.9821 30.8208 14.1908V11.652C30.6204 11.5748 30.509 11.5319 30.3954 11.4959C30.2531 11.4507 30.1075 11.4164 29.7793 11.339C29.1891 11.2347 28.5296 11.1999 27.8352 11.1999C26.9326 11.1999 26.0995 11.3043 25.3357 11.5477C24.572 11.7912 23.9124 12.1389 23.3569 12.5563C22.8015 13.0084 22.3849 13.53 22.0725 14.1212C21.76 14.7472 21.6212 15.408 21.6212 16.1383C21.6212 16.8687 21.76 17.5294 22.0378 18.1554C22.3155 18.7467 22.7321 19.2683 23.2875 19.6856C23.843 20.103 24.5026 20.416 25.301 20.6594C26.0647 20.9029 26.9674 21.0072 27.9741 21.0072ZM35.9584 9.84437C36.375 9.49659 36.5832 8.97493 36.5832 8.34894C36.5832 7.68816 36.375 7.1665 35.9584 6.81873C35.5418 6.43617 35.021 6.26229 34.3962 6.26229C33.7713 6.26229 33.2506 6.43617 32.834 6.81873C32.4174 7.20128 32.2091 7.68816 32.2091 8.34894C32.2091 8.97493 32.4174 9.49659 32.834 9.84437C33.2506 10.2269 33.7713 10.4008 34.3962 10.4008C35.021 10.4008 35.5418 10.1921 35.9584 9.84437Z" fill="white"/>
<path fill-rule="evenodd" clip-rule="evenodd" d="M44 0.999268L4 0.999268C2.34315 0.999268 1 2.34241 1 3.99927L1 27.9993C1 29.6561 2.34315 30.9993 4 30.9993L44 30.9993C45.6569 30.9993 47 29.6561 47 27.9993L47 3.99927C47 2.34241 45.6569 0.999268 44 0.999268ZM4 -0.000732422C1.79086 -0.000732422 0 1.79013 0 3.99927L0 27.9993C0 30.2084 1.79086 31.9993 4 31.9993L44 31.9993C46.2091 31.9993 48 30.2084 48 27.9993L48 3.99927C48 1.79013 46.2091 -0.000732422 44 -0.000732422L4 -0.000732422Z" fill="white" fill-opacity="0.1"/>
</svg>
